<svg width="18" height="12" viewBox="0 0 18 12" fill="none" xmlns="http://www.w3.org/2000/svg">
<path d="M1.00013 1L8.00013 5C8.24736 5.135 8.67834 6 9.00013 6C9.32193 6 9.7529 5.135 10.0001 5L17.0001 1C17.4799 0.737 17.8802 0 17.0001 0H1.00013C0.120103 0 0.521365 0.737 1.00013 1ZM18.0001 3L10.0001 8C9.66656 8.178 9.32193 8 9.00013 8C8.67834 8 8.3337 8.178 8.00013 8C7.66656 7.822 0.544632 3.289 0.000132099 3C-0.382489 2.796 0.000132099 3.816 0.000132099 4V11C0.000132099 11.42 0.574343 12 1.00013 12H17.0001C17.4259 12 18.0001 11.42 18.0001 11V4C18.0001 3.816 18.3837 2.796 18.0001 3Z" fill="#B8A58A"/>
</svg>
