<svg width="791" height="676" viewBox="0 0 791 676" fill="none" xmlns="http://www.w3.org/2000/svg">
<path d="M712.265 219.535C738.812 270.58 730.02 331.918 694.07 389.91C658.126 447.891 595.094 502.401 513.466 539.639C431.837 576.877 347.153 589.753 276.25 580.513C205.335 571.273 148.35 539.941 121.803 488.896C95.2561 437.85 104.048 376.512 139.998 318.521C175.942 260.54 238.974 206.029 320.602 168.792C402.231 131.554 486.915 118.678 557.818 127.917C628.733 137.158 685.718 168.489 712.265 219.535Z" stroke="#FFD56A" stroke-width="2"/>
<path d="M712.265 219.535C738.812 270.58 730.02 331.918 694.07 389.91C658.126 447.891 595.094 502.401 513.466 539.639C431.837 576.877 347.153 589.753 276.25 580.513C205.335 571.273 148.35 539.941 121.803 488.896C95.2561 437.85 104.048 376.512 139.998 318.521C175.942 260.54 238.974 206.029 320.602 168.792C402.231 131.554 486.915 118.678 557.818 127.917C628.733 137.158 685.718 168.489 712.265 219.535Z" stroke="#FFD56A" stroke-width="2"/>
<path d="M688.265 187.535C714.812 238.58 706.02 299.918 670.07 357.91C634.126 415.891 571.094 470.401 489.466 507.639C407.837 544.877 323.153 557.753 252.25 548.513C181.335 539.273 124.35 507.941 97.8029 456.896C71.2561 405.85 80.0477 344.512 115.998 286.521C151.942 228.54 214.974 174.029 296.602 136.792C378.231 99.5539 462.915 86.6781 533.818 95.9172C604.733 105.158 661.718 136.489 688.265 187.535Z" stroke="#FFD56A" stroke-width="2"/>
<path d="M688.265 187.535C714.812 238.58 706.02 299.918 670.07 357.91C634.126 415.891 571.094 470.401 489.466 507.639C407.837 544.877 323.153 557.753 252.25 548.513C181.335 539.273 124.35 507.941 97.8029 456.896C71.2561 405.85 80.0477 344.512 115.998 286.521C151.942 228.54 214.974 174.029 296.602 136.792C378.231 99.5539 462.915 86.6781 533.818 95.9172C604.733 105.158 661.718 136.489 688.265 187.535Z" stroke="#FFD56A" stroke-width="2"/>
</svg>
