<svg width="124" height="85" viewBox="0 0 124 85" fill="none" xmlns="http://www.w3.org/2000/svg">
<path d="M121.897 26.485C122.105 29.9589 120.696 33.6461 117.885 37.365C115.072 41.0865 110.878 44.8078 105.591 48.3123C95.0176 55.32 80.1613 61.4024 63.5311 64.8731C46.901 68.3438 31.6922 68.5358 20.5518 66.0596C14.9807 64.8213 10.4502 62.9208 7.26702 60.4506C4.08607 57.9822 2.27576 54.9669 2.06792 51.493C1.86009 48.0191 3.26939 44.3319 6.08016 40.6129C8.89287 36.8914 13.0871 33.1701 18.3744 29.6657C28.9474 22.6579 43.8038 16.5755 60.4339 13.1049C77.064 9.63421 92.2728 9.44212 103.413 11.9183C108.984 13.1567 113.515 15.0571 116.698 17.5273C119.879 19.9958 121.689 23.0111 121.897 26.485Z" stroke="white"/>
<path d="M121.956 33.4578C122.161 36.8747 120.775 40.502 118.009 44.1615C115.241 47.8235 111.113 51.4858 105.909 54.935C95.5032 61.8322 80.8807 67.819 64.5119 71.2351C48.1431 74.6512 33.1737 74.8402 22.209 72.403C16.7257 71.1843 12.2672 69.3139 9.13486 66.8831C6.00475 64.4541 4.22418 61.4877 4.01976 58.0708C3.81533 54.654 5.20141 51.0267 7.96725 47.3672C10.735 43.7052 14.8626 40.0429 20.0666 36.5937C30.4728 29.6965 45.0953 23.7097 61.4641 20.2936C77.8329 16.8775 92.8023 16.6885 103.767 19.1256C109.25 20.3444 113.709 22.2148 116.841 24.6456C119.971 27.0746 121.752 30.041 121.956 33.4578Z" stroke="white"/>
</svg>
