<svg width="40" height="40" viewBox="0 0 40 40" fill="none" xmlns="http://www.w3.org/2000/svg">
<g clip-path="url(#clip0_323_1281)">
<path d="M-2.18557e-07 5C-1.60592e-07 3.67392 0.526783 2.40215 1.46447 1.46446C2.40215 0.526783 3.67392 -1.58786e-06 5 -1.5299e-06L35 -2.18557e-07C36.3261 -1.60592e-07 37.5979 0.526784 38.5355 1.46447C39.4732 2.40215 40 3.67392 40 5L40 35C40 36.3261 39.4732 37.5979 38.5355 38.5355C37.5979 39.4732 36.3261 40 35 40L5 40C3.67391 40 2.40215 39.4732 1.46446 38.5355C0.526781 37.5978 -1.58786e-06 36.3261 -1.5299e-06 35L-2.18557e-07 5ZM11.25 21.25L25.7325 21.25L20.365 26.615C20.2488 26.7312 20.1566 26.8692 20.0937 27.021C20.0308 27.1729 19.9984 27.3356 19.9984 27.5C19.9984 27.6644 20.0308 27.8271 20.0937 27.979C20.1566 28.1308 20.2488 28.2688 20.365 28.385C20.4812 28.5012 20.6192 28.5934 20.771 28.6563C20.9229 28.7192 21.0856 28.7516 21.25 28.7516C21.4144 28.7516 21.5771 28.7192 21.729 28.6563C21.8808 28.5934 22.0188 28.5012 22.135 28.385L29.635 20.885C29.7514 20.7689 29.8438 20.6309 29.9068 20.4791C29.9698 20.3272 30.0022 20.1644 30.0022 20C30.0022 19.8356 29.9698 19.6728 29.9068 19.5209C29.8438 19.3691 29.7514 19.2311 29.635 19.115L22.135 11.615C21.9003 11.3803 21.5819 11.2484 21.25 11.2484C20.9181 11.2484 20.5997 11.3803 20.365 11.615C20.1303 11.8497 19.9984 12.1681 19.9984 12.5C19.9984 12.8319 20.1303 13.1503 20.365 13.385L25.7325 18.75L11.25 18.75C10.9185 18.75 10.6005 18.8817 10.3661 19.1161C10.1317 19.3505 10 19.6685 10 20C10 20.3315 10.1317 20.6495 10.3661 20.8839C10.6005 21.1183 10.9185 21.25 11.25 21.25Z" fill="#FCC865"/>
<path d="M30.0607 21.0607C30.6464 20.4749 30.6464 19.5251 30.0607 18.9393L20.5147 9.3934C19.9289 8.80761 18.9792 8.80761 18.3934 9.3934C17.8076 9.97919 17.8076 10.9289 18.3934 11.5147L26.8787 20L18.3934 28.4853C17.8076 29.0711 17.8076 30.0208 18.3934 30.6066C18.9792 31.1924 19.9289 31.1924 20.5147 30.6066L30.0607 21.0607ZM10 21.5L29 21.5L29 18.5L10 18.5L10 21.5Z" fill="white"/>
</g>
<defs>
<clipPath id="clip0_323_1281">
<rect width="40" height="40" fill="white" transform="translate(40) rotate(90)"/>
</clipPath>
</defs>
</svg>
