<svg width="72" height="80" viewBox="0 0 72 80" fill="none" xmlns="http://www.w3.org/2000/svg">
<path d="M6.84719 44.7429C6.66912 44.7431 6.49281 44.7783 6.32835 44.8465C6.16388 44.9148 6.01447 45.0148 5.88864 45.1408C5.76282 45.2668 5.66305 45.4164 5.59502 45.5809C5.527 45.7455 5.49206 45.9218 5.49219 46.0999V51.5229C5.49219 51.8826 5.63505 52.2275 5.88935 52.4818C6.14365 52.7361 6.48855 52.8789 6.84819 52.8789C7.20782 52.8789 7.55273 52.7361 7.80703 52.4818C8.06132 52.2275 8.20419 51.8826 8.20419 51.5229V46.0999C8.20432 45.9217 8.16931 45.7452 8.10116 45.5805C8.03301 45.4158 7.93306 45.2661 7.80703 45.1401C7.68099 45.014 7.53134 44.9141 7.36665 44.8459C7.20195 44.7778 7.02543 44.7428 6.84719 44.7429Z" fill="#FCC865"/>
<path d="M12.271 47.455C12.093 47.455 11.9166 47.49 11.7521 47.5582C11.5876 47.6263 11.4381 47.7262 11.3122 47.8521C11.1863 47.978 11.0864 48.1275 11.0183 48.292C10.9501 48.4566 10.915 48.6329 10.915 48.811V54.234C10.915 54.5936 11.0579 54.9385 11.3122 55.1928C11.5665 55.4471 11.9114 55.59 12.271 55.59C12.6307 55.59 12.9756 55.4471 13.2299 55.1928C13.4842 54.9385 13.627 54.5936 13.627 54.234V48.811C13.627 48.6329 13.592 48.4566 13.5238 48.292C13.4557 48.1275 13.3558 47.978 13.2299 47.8521C13.104 47.7262 12.9545 47.6263 12.79 47.5582C12.6254 47.49 12.4491 47.455 12.271 47.455Z" fill="#FCC865"/>
<path d="M61.724 54.7319C61.4262 54.5441 61.067 54.4794 60.7224 54.5516C60.3777 54.6238 60.0747 54.8273 59.8774 55.1189C59.6801 55.4105 59.6039 55.7675 59.6651 56.1142C59.7262 56.461 59.9198 56.7704 60.205 56.9769C61.8219 58.0656 62.9942 59.6987 63.5084 61.5789C64.0226 63.4591 63.8446 65.4615 63.0067 67.2215C62.1689 68.9816 60.7269 70.3822 58.9433 71.1686C57.1597 71.955 55.153 72.0747 53.2885 71.5061C51.424 70.9375 49.8257 69.7183 48.7844 68.0704C47.7432 66.4226 47.3282 64.4556 47.6151 62.5276C47.9021 60.5995 48.8717 58.8386 50.3477 57.5653C51.8236 56.292 53.7077 55.591 55.657 55.5899C56.0166 55.5899 56.3615 55.4471 56.6158 55.1928C56.8701 54.9385 57.013 54.5936 57.013 54.2339C57.013 53.8743 56.8701 53.5294 56.6158 53.2751C56.3615 53.0208 56.0166 52.8779 55.657 52.8779C53.058 52.8785 50.5456 53.8123 48.5771 55.5093C46.6086 57.2063 45.3148 59.5536 44.9313 62.1242C44.5477 64.6947 45.0999 67.3175 46.4873 69.5152C47.8747 71.7129 50.005 73.3394 52.4906 74.0987C54.9762 74.858 57.6518 74.6996 60.0305 73.6523C62.4091 72.605 64.3326 70.7385 65.451 68.3924C66.5693 66.0463 66.8081 63.3767 66.1239 60.8694C65.4397 58.3621 63.878 56.1838 61.723 54.7309L61.724 54.7319Z" fill="#FCC865"/>
<path d="M71.2904 59.2219C70.6412 56.9731 69.5143 54.891 67.9865 53.1177C66.4588 51.3444 64.5663 49.9217 62.4384 48.9469V18.9819C62.4383 18.7463 62.3769 18.5148 62.2601 18.3101C62.1433 18.1055 61.9752 17.9348 61.7724 17.8149L31.9434 0.188924C31.7344 0.0654049 31.4961 0.000244141 31.2534 0.000244141C31.0106 0.000244141 30.7723 0.0654049 30.5634 0.188924L0.73436 17.8149C0.70636 17.8309 0.68536 17.8559 0.65836 17.8749C0.63136 17.8939 0.60536 17.9159 0.57836 17.9369C0.460504 18.0297 0.359089 18.1415 0.278359 18.2679C0.278359 18.2769 0.26236 18.2829 0.25636 18.2919V18.2999C0.180034 18.4376 0.128261 18.5875 0.10336 18.7429C0.100015 18.7828 0.0946752 18.8225 0.0873594 18.8619C0.0790469 18.9009 0.0727055 18.9403 0.0683594 18.9799V54.2339C0.0685886 54.4694 0.13012 54.7007 0.246897 54.9052C0.363674 55.1096 0.531673 55.2801 0.73436 55.3999L30.5634 73.0279C30.5992 73.0452 30.6359 73.0606 30.6734 73.0739C30.7104 73.0924 30.7484 73.1088 30.7874 73.1229C30.9351 73.1847 31.0937 73.2166 31.2539 73.2166C31.414 73.2166 31.5726 73.1847 31.7204 73.1229C31.7596 73.1088 31.798 73.0924 31.8354 73.0739C31.8704 73.0579 31.9084 73.0479 31.9434 73.0279L40.0434 68.2429C41.2839 72.3348 44.0859 75.7735 47.843 77.8147C51.6 79.8559 56.0098 80.3354 60.1178 79.1494C64.2257 77.9635 67.7014 75.2074 69.7924 71.4779C71.8834 67.7483 72.4216 63.3453 71.2904 59.2219ZM31.2534 2.92992L38.3004 7.09992L27.8504 13.2739C27.6923 13.3621 27.5534 13.4811 27.442 13.6237C27.3306 13.7664 27.2488 13.9299 27.2016 14.1047C27.1543 14.2794 27.1425 14.4619 27.1668 14.6412C27.1911 14.8206 27.251 14.9933 27.3431 15.1492C27.4352 15.3051 27.5575 15.4409 27.7029 15.5488C27.8483 15.6566 28.0138 15.7343 28.1896 15.7773C28.3655 15.8202 28.5482 15.8275 28.7269 15.7988C28.9056 15.77 29.0768 15.7058 29.2304 15.6099L40.9704 8.67792L48.0204 12.8449L20.8584 28.8909L13.8084 24.7239L25.1664 18.0129C25.3244 17.9247 25.4633 17.8058 25.5747 17.6631C25.6861 17.5205 25.7679 17.3569 25.8152 17.1822C25.8624 17.0074 25.8743 16.825 25.8499 16.6456C25.8256 16.4662 25.7657 16.2935 25.6736 16.1377C25.5815 15.9818 25.4592 15.8459 25.3138 15.7381C25.1684 15.6302 25.0029 15.5525 24.8271 15.5096C24.6512 15.4666 24.4685 15.4593 24.2898 15.4881C24.1111 15.5168 23.9399 15.581 23.7864 15.6769L11.1414 23.1489L4.09036 18.9819L31.2534 2.92992ZM19.5004 31.2409V40.2939L12.5004 36.1549V27.0999L19.5004 31.2409ZM39.9244 59.5339C39.423 61.4545 39.2719 63.4497 39.4784 65.4239L32.6094 69.4849V65.0849C32.6094 64.7253 32.4665 64.3804 32.2122 64.1261C31.9579 63.8718 31.613 63.7289 31.2534 63.7289C30.8937 63.7289 30.5488 63.8718 30.2945 64.1261C30.0402 64.3804 29.8974 64.7253 29.8974 65.0849V69.4849L2.78036 53.4619V21.3619L9.78636 25.4999V36.9269C9.78607 37.1629 9.84735 37.3948 9.96415 37.5998C10.081 37.8049 10.2492 37.9759 10.4524 38.0959L20.1684 43.8379C20.3743 43.9596 20.6087 44.0247 20.8479 44.0266C21.087 44.0284 21.3224 43.967 21.5302 43.8485C21.738 43.73 21.9107 43.5586 22.0308 43.3518C22.151 43.145 22.2143 42.9101 22.2144 42.6709V32.8419L29.9004 37.3829V59.6579C29.9004 60.0176 30.0432 60.3625 30.2975 60.6168C30.5518 60.8711 30.8967 61.0139 31.2564 61.0139C31.616 61.0139 31.9609 60.8711 32.2152 60.6168C32.4695 60.3625 32.6124 60.0176 32.6124 59.6579V37.3829L57.1824 22.8609C57.492 22.6779 57.7163 22.3794 57.8058 22.0311C57.8954 21.6827 57.8429 21.3131 57.6599 21.0034C57.4769 20.6938 57.1784 20.4695 56.83 20.38C56.4817 20.2904 56.112 20.3429 55.8024 20.5259L31.2534 35.0339L23.5254 30.4659L50.6884 14.4139L59.7264 19.7549V47.9999C57.6688 47.4565 55.5243 47.3237 53.4154 47.6093C51.3066 47.8949 49.2746 48.5932 47.4357 49.6643C45.5968 50.7354 43.9869 52.1583 42.6981 53.8518C41.4093 55.5453 40.4667 57.4761 39.9244 59.5339ZM55.6584 77.2839C52.9766 77.2839 50.3551 76.4887 48.1254 74.9988C45.8956 73.5089 44.1577 71.3913 43.1315 68.9137C42.1052 66.4361 41.8367 63.7099 42.3599 61.0797C42.8831 58.4495 44.1744 56.0335 46.0707 54.1373C47.967 52.241 50.3829 50.9496 53.0131 50.4265C55.6433 49.9033 58.3696 50.1718 60.8472 51.198C63.3247 52.2243 65.4424 53.9622 66.9323 56.1919C68.4221 58.4217 69.2174 61.0432 69.2174 63.7249C69.2175 65.5056 68.8669 67.2688 68.1855 68.9139C67.5042 70.559 66.5054 72.0538 65.2463 73.3129C63.9872 74.572 62.4924 75.5707 60.8473 76.2521C59.2022 76.9334 57.439 77.284 55.6584 77.2839Z" fill="#8D715E"/>
<path d="M60.6518 60.0549C60.399 59.8108 60.0613 59.6743 59.7098 59.6743C59.3584 59.6743 59.0206 59.8108 58.7678 60.0549L53.6248 65.1999L52.5498 64.1249C52.2934 63.8817 51.9522 63.7483 51.5988 63.753C51.2454 63.7576 50.9078 63.9001 50.6579 64.15C50.408 64.3999 50.2655 64.7375 50.2609 65.0909C50.2562 65.4443 50.3896 65.7855 50.6328 66.0419L52.6668 68.0759C52.9211 68.33 53.2659 68.4728 53.6253 68.4728C53.9848 68.4728 54.3296 68.33 54.5838 68.0759L60.6838 61.9759C60.8082 61.8479 60.906 61.6965 60.9717 61.5305C61.0374 61.3646 61.0697 61.1873 61.0667 61.0088C61.0638 60.8303 61.0256 60.6542 60.9544 60.4905C60.8832 60.3268 60.7804 60.1788 60.6518 60.0549Z" fill="#FCC865"/>
</svg>
