<svg width="28" height="24" viewBox="0 0 28 24" fill="none" xmlns="http://www.w3.org/2000/svg">
<path d="M25 4.99998H21L20 1.99998C19.9275 1.80368 20.1752 1.11985 20 0.999976C19.8248 0.880097 19.214 0.999791 19 0.999976H9C8.5625 0.999976 8.14583 1.59874 8 1.99998L7 4.99998H3C1.56759 4.99998 0 5.60355 0 6.99998V21C0 22.3964 1.56759 24 3 24H25C26.4324 24 28 22.3964 28 21V6.99998C28 5.60355 26.4324 4.99998 25 4.99998ZM14 19C11.1352 19 9 16.7928 9 14C9 11.2071 11.1352 8.99998 14 8.99998C16.8648 8.99998 19 11.2071 19 14C19 16.7928 16.8648 19 14 19ZM11 14C11 14.8044 11.4166 15.4312 12 16C12.5834 16.5688 13.1749 17 14 17C14.8251 17 15.4166 16.5688 16 16C16.5834 15.4312 17 14.8044 17 14C17 13.1956 16.5834 12.5688 16 12C15.4166 11.4312 14.8251 11 14 11C13.1749 11 12.5834 11.4312 12 12C11.4166 12.5688 11 13.1956 11 14Z" fill="white"/>
</svg>
