<svg width="75" height="61" viewBox="0 0 75 61" fill="none" xmlns="http://www.w3.org/2000/svg">
<path d="M68.7741 8.58783H56.1947L50.8753 0.860779C50.7407 0.665072 50.5605 0.505346 50.3503 0.394775C50.1401 0.284204 49.9062 0.226333 49.6687 0.226318H25.3313C25.0938 0.226333 24.8599 0.284204 24.6497 0.394775C24.4395 0.505346 24.2593 0.665072 24.1247 0.860779L18.8044 8.58783H14.6793V4.19513C14.6791 3.80748 14.5253 3.43505 14.2516 3.16058C13.9778 2.88612 13.6064 2.73153 13.2187 2.73029H6.22593C5.83763 2.73053 5.46527 2.8851 5.1907 3.15967C4.91613 3.43424 4.76179 3.80683 4.76154 4.19513V8.76453C3.40526 9.09444 2.19894 9.86953 1.33564 10.9664C0.47234 12.0632 0.00200564 13.4176 0 14.8134V52.1669C0.00173718 53.8176 0.658234 55.3997 1.82545 56.567C2.99266 57.7342 4.57524 58.3908 6.22593 58.3925H30.6432C34.1478 59.9617 37.9444 60.7729 41.7843 60.7729C45.6243 60.7729 49.4209 59.9617 52.9256 58.3925H68.7694C70.4209 58.392 72.0046 57.7361 73.1728 56.5688C74.3411 55.4014 74.9983 53.8184 75 52.1669V14.8134C74.9983 13.1627 74.3418 11.5806 73.1746 10.4134C72.0073 9.24618 70.4248 8.58957 68.7741 8.58783ZM26.1019 3.15601H48.8991L52.5141 8.40564C49.0535 6.92437 45.3238 6.17632 41.5597 6.20746C37.7956 6.2386 34.0787 7.04859 30.6432 8.58692H22.3622L26.1019 3.15601ZM7.68745 5.65631H11.7516V8.58508H7.68745V5.65631ZM6.22593 55.4638C5.35201 55.4628 4.51421 55.1149 3.89626 54.497C3.2783 53.879 2.93068 53.0418 2.92969 52.1679V14.8134C2.93068 13.9395 3.2783 13.1023 3.89626 12.4843C4.51421 11.8664 5.35201 11.5185 6.22593 11.5175H25.6321C22.1823 14.0491 19.377 17.3572 17.4434 21.1745C15.5098 24.9918 14.5022 29.2111 14.5022 33.4902C14.5022 37.7693 15.5098 41.9885 17.4434 45.8059C19.377 49.6232 22.1823 52.9312 25.6321 55.4628H6.22593V55.4638ZM41.7843 57.8441C36.9677 57.8441 32.2592 56.4158 28.2543 53.7398C24.2494 51.0638 21.128 47.2603 19.2848 42.8102C17.4415 38.3602 16.9592 33.4636 17.8989 28.7395C18.8386 24.0154 21.1581 19.6759 24.5639 16.27C27.9698 12.8641 32.3092 10.5447 37.0333 9.60498C41.7574 8.6653 46.654 9.14784 51.104 10.9911C55.5541 12.8343 59.3575 15.9556 62.0335 19.9605C64.7095 23.9654 66.1378 28.6744 66.1378 33.4911C66.1306 39.9478 63.5625 46.1374 58.9969 50.703C54.4313 55.2686 48.2411 57.8369 41.7843 57.8441ZM72.0703 52.1679C72.0693 53.0418 71.7217 53.879 71.1037 54.497C70.4858 55.1149 69.648 55.4628 68.7741 55.4638H57.9375C61.3874 52.9321 64.1926 49.6241 66.1263 45.8068C68.0599 41.9895 69.0675 37.7702 69.0675 33.4911C69.0675 29.212 68.0599 24.9927 66.1263 21.1754C64.1926 17.3581 61.3874 14.05 57.9375 11.5184H68.7741C69.648 11.5194 70.4858 11.8673 71.1037 12.4852C71.7217 13.1032 72.0693 13.9404 72.0703 14.8143V52.1679Z" fill="#8D715E"/>
<path d="M11.1125 49.8754H8.51562V43.1564C8.51562 42.7679 8.3613 42.3956 8.08659 42.1209C7.81187 41.8462 7.43928 41.6915 7.05078 41.6915C6.66228 41.6915 6.28969 41.8462 6.01498 42.1209C5.74027 42.3956 5.58594 42.7679 5.58594 43.1564V51.3412C5.58619 51.7295 5.74052 52.1012 6.01509 52.3757C6.28966 52.6503 6.66202 52.8049 7.05032 52.8051H11.1116C11.5001 52.8051 11.8727 52.6504 12.1474 52.3757C12.4221 52.101 12.5764 51.7288 12.5764 51.3403C12.5764 50.9518 12.4221 50.5795 12.1474 50.3048C11.8727 50.0301 11.5001 49.8754 11.1116 49.8754H11.1125ZM7.05124 37.6119C6.66278 37.6122 6.29037 37.7666 6.01578 38.0413C5.74118 38.3161 5.58685 38.6892 5.58685 39.0777V39.1464C5.58685 39.5349 5.74118 39.908 6.01589 40.1827C6.2906 40.4575 6.6632 40.6112 7.0517 40.6112C7.4402 40.6112 7.81279 40.4575 8.0875 40.1827C8.36221 39.908 8.51654 39.5349 8.51654 39.1464V39.0777C8.51654 38.8853 8.47871 38.6943 8.40508 38.5165C8.33144 38.3387 8.22345 38.1774 8.08739 38.0413C7.95132 37.9053 7.78978 37.7973 7.612 37.7236C7.43422 37.65 7.24367 37.6119 7.05124 37.6119ZM41.7837 12.0742C37.5479 12.074 33.4073 13.3301 29.8853 15.6832C26.3633 18.0364 23.6182 21.3811 21.9971 25.2944C20.376 29.2077 19.9517 33.5143 20.778 37.6687C21.6042 41.8231 23.6439 45.6388 26.6389 48.634C29.634 51.6292 33.45 53.6688 37.6043 54.4952C41.7587 55.3216 46.0649 54.8975 49.9783 53.2766C53.8916 51.6557 57.2364 48.9113 59.5897 45.3893C61.943 41.8674 63.199 37.7269 63.199 33.4912C63.1928 27.8133 60.9347 22.3697 56.9199 18.3547C52.9051 14.3398 47.4616 12.0807 41.7837 12.0742ZM41.7837 51.9766C38.1273 51.9767 34.5531 50.8923 31.5129 48.861C28.4726 46.8298 26.103 43.9425 24.7036 40.5645C23.3043 37.1865 22.9382 33.4692 23.6515 29.8831C24.3647 26.2969 26.1255 23.0029 28.7109 20.4174C31.2963 17.832 34.5904 16.0715 38.1765 15.3582C41.7627 14.6449 45.4797 15.0118 48.8578 16.4111C52.2358 17.8104 55.123 20.1796 57.1543 23.2198C59.1855 26.2601 60.2695 29.8348 60.2694 33.4912C60.2639 38.3923 58.3146 43.091 54.8491 46.5566C51.3836 50.0223 46.6848 51.9718 41.7837 51.9775V51.9766Z" fill="#8D715E"/>
<path d="M54.7941 23.8139C52.7645 21.074 49.9189 19.0478 46.6659 18.0259C46.2991 17.9216 45.906 17.9641 45.5702 18.145C45.2343 18.3258 44.9823 18.6308 44.8676 18.9946C44.7529 19.3583 44.7845 19.7524 44.9557 20.0932C45.127 20.434 45.4244 20.6942 45.7847 20.8192C48.4823 21.6628 50.8387 23.3484 52.5089 25.6285C54.1791 27.9085 55.0753 30.6638 55.066 33.4901C55.066 33.8786 55.2203 34.2509 55.495 34.5256C55.7698 34.8003 56.1423 34.955 56.5308 34.955C56.9193 34.955 57.2918 34.8003 57.5665 34.5256C57.8413 34.2509 57.9957 33.8786 57.9957 33.4901C58.0061 30.003 56.8823 26.6067 54.7941 23.8139ZM41.9484 17.2816H41.7843C41.3958 17.2816 41.0232 17.4354 40.7485 17.7101C40.4738 17.9848 40.3195 18.358 40.3195 18.7465C40.3195 19.135 40.4738 19.5072 40.7485 19.7819C41.0232 20.0566 41.3958 20.2113 41.7843 20.2113H41.9363C42.3185 20.2034 42.6824 20.0462 42.9505 19.7737C43.2186 19.5011 43.3695 19.1342 43.3711 18.752C43.3727 18.3697 43.2249 18.0023 42.9591 17.7275C42.6933 17.4527 42.3306 17.2927 41.9484 17.2816ZM12.5784 13.625C11.7093 13.6243 10.8593 13.8815 10.1363 14.3638C9.4132 14.8462 8.84943 15.5322 8.51625 16.335C8.18307 17.1378 8.09555 18.0211 8.26459 18.8737C8.43364 19.7263 8.85172 20.5092 9.46599 21.1241C10.0803 21.739 10.8632 22.158 11.7156 22.328C12.568 22.498 13.4516 22.4113 14.2548 22.079C15.0579 21.7467 15.7444 21.1838 16.2275 20.4612C16.7106 19.7387 16.9686 18.8896 16.9687 18.0204C16.9675 16.856 16.5047 15.7388 15.6817 14.915C14.8588 14.0912 13.7429 13.6275 12.5784 13.625ZM12.5784 19.4844C12.2889 19.4842 12.0058 19.3982 11.7651 19.2372C11.5244 19.0762 11.3369 18.8474 11.2262 18.5798C11.1155 18.3122 11.0866 18.0179 11.1432 17.7339C11.1998 17.4499 11.3394 17.1888 11.5442 16.9841C11.7491 16.7794 12.01 16.6404 12.2941 16.584C12.5781 16.5276 12.8725 16.5564 13.14 16.6673C13.4075 16.7782 13.6361 16.9657 13.797 17.2065C13.9579 17.4473 14.0437 17.7309 14.0437 18.0204C14.0432 18.4088 13.8887 18.7805 13.614 19.055C13.3393 19.3295 12.9668 19.4841 12.5784 19.4844Z" fill="#FCC865"/>
</svg>
