<svg width="19" height="15" viewBox="0 0 19 15" fill="none" xmlns="http://www.w3.org/2000/svg">
<path d="M18.9973 10.1161V12.2091C18.9973 12.3036 18.9637 12.3853 18.8966 12.4544C18.8295 12.5234 18.75 12.5579 18.6581 12.5579H4.07392V14.651C4.07392 14.7454 4.04036 14.8272 3.97323 14.8962C3.9061 14.9653 3.82661 14.9998 3.73475 14.9998C3.64996 14.9998 3.56517 14.9635 3.48038 14.8908L0.0992972 11.4024C0.0357032 11.337 0.00390625 11.2571 0.00390625 11.1626C0.00390625 11.0608 0.0357032 10.9773 0.0992972 10.9119L3.49098 7.42349C3.55457 7.35808 3.63583 7.32538 3.73475 7.32538C3.82661 7.32538 3.9061 7.3599 3.97323 7.42894C4.04036 7.49798 4.07392 7.57974 4.07392 7.67421V9.76724H18.6581C18.75 9.76724 18.8295 9.80176 18.8966 9.8708C18.9637 9.93984 18.9973 10.0216 18.9973 10.1161ZM18.9973 4.18584C18.9973 4.28759 18.9655 4.37116 18.9019 4.43657L15.5102 7.92494C15.4466 7.99035 15.3654 8.02305 15.2665 8.02305C15.1746 8.02305 15.0951 7.98853 15.028 7.91949C14.9609 7.85045 14.9273 7.76869 14.9273 7.67421V5.58119H0.343074C0.251216 5.58119 0.171724 5.54667 0.104597 5.47763C0.0374697 5.40859 0.00390625 5.32683 0.00390625 5.23235V3.13933C0.00390625 3.04485 0.0374697 2.9631 0.104597 2.89405C0.171724 2.82501 0.251216 2.79049 0.343074 2.79049H14.9273V0.69747C14.9273 0.595726 14.9591 0.51215 15.0227 0.446743C15.0863 0.381336 15.1675 0.348633 15.2665 0.348633C15.3513 0.348633 15.436 0.38497 15.5208 0.457644L18.9019 3.93512C18.9655 4.00052 18.9973 4.0841 18.9973 4.18584Z" fill="white"/>
</svg>
