<svg width="30" height="30" viewBox="0 0 30 30" fill="none" xmlns="http://www.w3.org/2000/svg">
<g clip-path="url(#clip0_120_292)">
<path d="M28.5947 0H17.3447C16.5722 0 15.4903 0.448125 14.9447 0.99375L0.996589 14.9419C0.733587 15.2061 0.585938 15.5637 0.585938 15.9366C0.585938 16.3094 0.733587 16.667 0.996589 16.9312L13.0697 29.0044C13.3339 29.2674 13.6916 29.415 14.0644 29.415C14.4372 29.415 14.7949 29.2674 15.0591 29.0044L29.0072 15.0562C29.5547 14.5087 30.001 13.4288 30.001 12.6562V1.40625C29.9995 1.03375 29.8509 0.67692 29.5874 0.413517C29.324 0.150115 28.9672 0.00148115 28.5947 0V0ZM21.5635 11.25C21.194 11.2499 20.8282 11.177 20.4869 11.0355C20.1456 10.894 19.8355 10.6866 19.5743 10.4253C19.3132 10.164 19.106 9.85374 18.9648 9.51235C18.8235 9.17096 18.7508 8.80509 18.751 8.43563C18.7511 8.06616 18.824 7.70034 18.9655 7.35904C19.107 7.01775 19.3143 6.70766 19.5757 6.4465C19.837 6.18533 20.1472 5.9782 20.4886 5.83693C20.83 5.69565 21.1959 5.623 21.5653 5.62313C22.3115 5.62337 23.027 5.92003 23.5545 6.44782C24.0819 6.97562 24.3781 7.69133 24.3778 8.4375C24.3776 9.18367 24.0809 9.89918 23.5531 10.4266C23.0253 10.9541 22.3096 11.2502 21.5635 11.25Z" fill="#5F4F45"/>
</g>
<defs>
<clipPath id="clip0_120_292">
<rect width="30" height="30" fill="white"/>
</clipPath>
</defs>
</svg>
