<svg width="51" height="50" viewBox="0 0 51 50" fill="none" xmlns="http://www.w3.org/2000/svg">
<g clip-path="url(#clip0_0_1056)">
<path d="M9.01685 22.9438C8.53046 22.9438 8.05499 23.0882 7.65057 23.3584C7.24615 23.6285 6.93095 24.0122 6.74481 24.4614C6.55868 24.9106 6.50998 25.4049 6.60487 25.8818C6.69976 26.3587 6.93398 26.7967 7.27791 27.1405C7.62184 27.4843 8.06003 27.7184 8.53707 27.8133C9.01412 27.9081 9.5086 27.8599 9.95796 27.6738C10.4073 27.4877 10.7914 27.1726 11.0616 26.7683C11.3319 26.364 11.4761 25.8884 11.4761 25.4022C11.4761 24.7501 11.217 24.1249 10.7558 23.6638C10.2946 23.2028 9.66908 22.9438 9.01685 22.9438ZM9.01685 26.2219C8.85472 26.2219 8.69623 26.1736 8.56143 26.0836C8.42662 25.9936 8.32154 25.8655 8.2595 25.7157C8.19745 25.566 8.18123 25.4016 8.21286 25.2426C8.24449 25.0837 8.32257 24.9373 8.43721 24.8227C8.55185 24.7081 8.69791 24.6303 8.85693 24.5986C9.01594 24.567 9.18076 24.5833 9.33055 24.6453C9.48034 24.7073 9.60836 24.8122 9.69844 24.947C9.78851 25.0817 9.8366 25.2401 9.8366 25.4022C9.8366 25.6195 9.75022 25.8279 9.59649 25.9816C9.44275 26.1353 9.23426 26.2219 9.01685 26.2219Z" fill="#8D715E"/>
<path d="M22.1321 22.9441C22.3495 22.9441 22.558 23.0308 22.7117 23.1845C22.8654 23.3382 22.9518 23.5466 22.9518 23.7639H24.5913C24.5891 23.2574 24.4305 22.7636 24.137 22.3506C23.8435 21.9376 23.4296 21.6253 22.9518 21.4565V20.4858H21.3123V21.4559C20.8345 21.6248 20.4206 21.937 20.1272 22.35C19.8337 22.7631 19.675 23.2568 19.6729 23.7634C19.6729 25.0896 20.8827 25.6937 21.7653 26.1392C22.46 26.4815 22.9518 26.7504 22.9518 27.041C22.9518 27.2583 22.8654 27.4667 22.7117 27.6204C22.558 27.7741 22.3495 27.8608 22.1321 27.8608C21.9147 27.8608 21.7062 27.7741 21.5524 27.6204C21.3987 27.4667 21.3123 27.2583 21.3123 27.041H19.6729C19.675 27.5475 19.8337 28.0413 20.1272 28.4543C20.4206 28.8673 20.8345 29.1796 21.3123 29.3484V30.3185H22.9518V29.349C23.4296 29.1801 23.8435 28.8679 24.137 28.4548C24.4305 28.0418 24.5891 27.5481 24.5913 27.0415C24.5913 25.7153 23.3814 25.1112 22.4983 24.6657C21.8042 24.3234 21.3123 24.0545 21.3123 23.7639C21.3123 23.5466 21.3987 23.3382 21.5524 23.1845C21.7062 23.0308 21.9147 22.9441 22.1321 22.9441Z" fill="#FA9936"/>
<path d="M22.1324 18.0273C20.6734 18.0275 19.2472 18.4599 18.0341 19.2703C16.821 20.0807 15.8756 21.2324 15.3173 22.5799C14.759 23.9274 14.613 25.4101 14.8976 26.8406C15.1823 28.2711 15.8849 29.5854 16.9166 30.6167C17.9483 31.6481 19.2627 32.3505 20.6937 32.635C22.1246 32.9196 23.6079 32.7732 24.9559 32.2151C26.3038 31.657 27.456 30.7123 28.2667 29.4996C29.0773 28.2869 29.51 26.8608 29.5102 25.4023C29.5102 24.4337 29.3194 23.4747 28.9487 22.5799C28.578 21.6851 28.0345 20.8721 27.3494 20.1872C26.6643 19.5024 25.851 18.959 24.9559 18.5883C24.0607 18.2177 23.1013 18.0273 22.1324 18.0273ZM22.1324 31.1387C20.9975 31.1387 19.8881 30.8021 18.9445 30.1718C18.0008 29.5415 17.2653 28.6456 16.831 27.5974C16.3967 26.5493 16.2831 25.3962 16.5045 24.2835C16.7259 23.1708 17.2724 22.1484 18.0749 21.3461C18.8774 20.5439 19.8999 19.9979 21.013 19.7765C22.1261 19.5552 23.2798 19.6684 24.3284 20.1026C25.3769 20.5368 26.2731 21.272 26.9036 22.2153C27.5341 23.1586 27.8707 24.2677 27.8707 25.4023C27.8707 26.1555 27.7222 26.9015 27.4338 27.5974C27.1455 28.2934 26.7228 28.9258 26.1899 29.4584C25.6571 29.991 25.0245 30.4137 24.3283 30.7019C23.6321 30.9901 22.886 31.1382 22.1324 31.1381V31.1387Z" fill="#FA9936"/>
<path d="M38.5264 29.501C36.743 29.501 34.9997 30.0296 33.5168 31.0201C32.034 32.0106 30.8784 33.4188 30.196 35.0659C29.5136 36.7131 29.3351 38.5254 29.6831 40.2739C30.0312 42.0224 30.8901 43.6283 32.1513 44.8888C33.4124 46.1494 35.0192 47.0077 36.7684 47.3553C38.5175 47.7029 40.3305 47.5245 41.9781 46.842C43.6256 46.1596 45.0337 45.0036 46.0243 43.5211C47.0148 42.0386 47.5434 40.2961 47.543 38.5133C47.5426 36.123 46.5924 33.8305 44.9015 32.1405C43.2106 30.4505 40.9175 29.501 38.5264 29.501ZM38.5264 45.8904C37.0675 45.8904 35.6413 45.4582 34.4282 44.648C33.2151 43.8377 32.2695 42.6863 31.7111 41.3389C31.1526 39.9915 31.0064 38.5087 31.2908 37.0783C31.5752 35.6478 32.2775 34.3336 33.309 33.3021C34.3404 32.2706 35.6546 31.5681 37.0855 31.2833C38.5163 30.9984 39.9995 31.1438 41.3476 31.7016C42.6956 32.2593 43.848 33.2041 44.6589 34.4165C45.4699 35.6289 45.903 37.0549 45.9035 38.5133C45.9039 39.482 45.7134 40.4412 45.3428 41.3362C44.9722 42.2313 44.4289 43.0443 43.7438 43.7294C43.0587 44.4145 42.2454 44.9581 41.3501 45.3289C40.4549 45.6996 39.4954 45.8904 38.5264 45.8904Z" fill="#8D715E"/>
<path d="M44.264 28.5931V22.9451H45.0837C45.7359 22.9451 46.3615 22.6862 46.8227 22.2251C47.2839 21.7641 47.543 21.1388 47.543 20.4868V2.4583C47.543 1.80629 47.2839 1.18101 46.8227 0.719967C46.3615 0.258925 45.7359 0 45.0837 0H13.9345C13.2823 0 12.6568 0.258925 12.1956 0.719967C11.7344 1.18101 11.4753 1.80629 11.4753 2.4583V13.1113H4.09816C3.01176 13.1126 1.97024 13.5446 1.20199 14.3125C0.433732 15.0804 0.00147068 16.1216 0 17.2076V33.597C0.00117687 34.6833 0.433377 35.725 1.20178 36.4932C1.97019 37.2613 3.01204 37.6932 4.09872 37.6944H27.0916C27.0721 37.9666 27.0499 38.2375 27.0499 38.5142C27.0474 40.5285 27.5756 42.5077 28.5812 44.2533C29.5869 45.9988 31.0345 47.4493 32.7787 48.4581C34.5228 49.4668 36.5019 49.9984 38.5169 50C40.5319 50.0016 42.5118 49.4728 44.2575 48.4667C46.0032 47.4607 47.4531 46.013 48.4614 44.269C49.4698 42.525 50.001 40.5464 50.0016 38.5321C50.0023 36.5177 49.4724 34.5387 48.4652 32.794C47.458 31.0494 46.009 29.6003 44.264 28.5931ZM13.1154 2.4583C13.1154 2.24106 13.2017 2.03307 13.3553 1.8794C13.5089 1.72574 13.7172 1.6392 13.9345 1.63905H45.0837C45.1914 1.63905 45.298 1.66026 45.3974 1.70144C45.4969 1.74263 45.5873 1.80276 45.6634 1.87886C45.7395 1.95495 45.7999 2.04529 45.8411 2.14471C45.8823 2.24413 45.9035 2.35069 45.9035 2.4583V4.91661H13.1137L13.1154 2.4583ZM13.1154 6.55566H45.9051V9.83376H13.1154V6.55566ZM13.1154 11.4728H45.9051V20.4857C45.9051 20.703 45.8188 20.9115 45.6651 21.0651C45.5113 21.2188 45.3028 21.3049 45.0854 21.3049H44.264V17.2076C44.2624 16.1215 43.83 15.0804 43.0617 14.3125C42.2933 13.5447 41.2517 13.1126 40.1653 13.1113H13.1154V11.4728ZM4.09816 36.0569C3.44593 36.0569 2.82042 35.7975 2.35923 35.3364C1.89803 34.8754 1.63894 34.2501 1.63894 33.5981V17.2087C1.63894 16.5567 1.89803 15.9314 2.35923 15.4703C2.82042 15.0093 3.44593 14.7504 4.09816 14.7504H40.1669C40.8192 14.7504 41.4447 15.0093 41.9059 15.4703C42.3671 15.9314 42.6262 16.5567 42.6262 17.2087V27.8107C40.8277 27.1005 38.8739 26.8763 36.9613 27.1607C37.351 26.7848 37.6057 26.2909 37.6858 25.7555C37.7659 25.2201 37.667 24.6735 37.4044 24.2C37.1418 23.7265 36.7303 23.3529 36.2336 23.1371C35.737 22.9214 35.1829 22.8757 34.6575 23.0069C34.1321 23.1381 33.6648 23.4386 33.3279 23.8625C32.9911 24.2864 32.8037 24.81 32.7947 25.3513C32.7857 25.8926 32.9557 26.4215 33.2783 26.8563C33.6009 27.2912 34.058 27.6073 34.5788 27.7559C32.7706 28.4213 31.1586 29.5299 29.8907 30.9803C28.6228 32.4306 27.7396 34.1765 27.3222 36.0569H4.09816ZM36.0671 25.4023C36.0671 25.5644 36.019 25.7227 35.929 25.8575C35.8389 25.9923 35.7108 26.0977 35.5611 26.1597C35.4113 26.2217 35.2464 26.238 35.0874 26.2064C34.9284 26.1747 34.7824 26.0964 34.6677 25.9817C34.5531 25.8671 34.475 25.7213 34.4434 25.5624C34.4117 25.4034 34.428 25.2384 34.49 25.0887C34.552 24.939 34.6571 24.8114 34.7919 24.7214C34.9267 24.6314 35.0852 24.583 35.2473 24.583C35.355 24.583 35.4616 24.6043 35.5611 24.6454C35.6605 24.6866 35.7509 24.7468 35.827 24.8229C35.9031 24.8989 35.9635 24.9893 36.0047 25.0887C36.0459 25.1881 36.0671 25.2947 36.0671 25.4023ZM38.5263 48.3479C36.5808 48.3479 34.6789 47.771 33.0612 46.6904C31.4435 45.6099 30.1827 44.0742 29.4382 42.2773C28.6937 40.4804 28.4988 38.5032 28.8784 36.5957C29.258 34.6882 30.1948 32.9361 31.5706 31.5608C32.9463 30.1856 34.6991 29.2486 36.6072 28.8692C38.5154 28.4898 40.4933 28.6848 42.2908 29.4291C44.0882 30.1734 45.6245 31.4335 46.7054 33.0507C47.7863 34.6678 48.3633 36.5692 48.3633 38.5142C48.363 41.1221 47.3264 43.623 45.4815 45.467C43.6366 47.3109 41.1346 48.347 38.5258 48.3468L38.5263 48.3479Z" fill="#8D715E"/>
<path d="M38.5261 34.4157C38.9609 34.4157 39.3779 34.5879 39.6853 34.8953C39.9928 35.2026 40.1655 35.62 40.1655 36.0547H41.805C41.8022 35.3302 41.5594 34.6268 41.1145 34.0549C40.6695 33.4829 40.0476 33.0744 39.3458 32.8933V31.9541H37.7063V32.8905C37.0045 33.0717 36.3826 33.4802 35.9376 34.0522C35.4927 34.6241 35.2499 35.3269 35.2471 36.0515C35.2471 38.2815 36.9922 38.8633 38.2671 39.2878C39.6448 39.7461 40.1655 40.0102 40.1655 40.9686C40.1655 41.4033 39.9928 41.8201 39.6853 42.1275C39.3779 42.4349 38.9609 42.6077 38.5261 42.6077C38.0912 42.6077 37.6742 42.4349 37.3667 42.1275C37.0593 41.8201 36.8866 41.4033 36.8866 40.9686H35.2471C35.2499 41.6931 35.4927 42.396 35.9376 42.9679C36.3826 43.5399 37.0045 43.9484 37.7063 44.1295V45.066H39.3458V44.1317C40.0476 43.9506 40.6695 43.5426 41.1145 42.9706C41.5594 42.3987 41.8022 41.6953 41.805 40.9708C41.805 38.7407 40.06 38.1589 38.785 37.7345C37.4068 37.2761 36.8866 37.0125 36.8866 36.0542C36.8867 35.6196 37.0595 35.2025 37.367 34.8953C37.6744 34.588 38.0913 34.4157 38.5261 34.4157Z" fill="#8D715E"/>
</g>
<defs>
<clipPath id="clip0_0_1056">
<rect width="50.0016" height="50" fill="white"/>
</clipPath>
</defs>
</svg>
