<svg width="80" height="73" viewBox="0 0 80 73" fill="none" xmlns="http://www.w3.org/2000/svg">
<path d="M74.7476 29.4947H73.4476C71.0376 22.2837 62.6696 15.6547 56.5156 12.6227L59.6806 2.02269C59.7668 1.73572 59.7691 1.4301 59.6872 1.14188C59.6054 0.853654 59.4428 0.594843 59.2187 0.39597C58.9946 0.197096 58.7183 0.0664545 58.4224 0.019452C58.1265 -0.0275505 57.8233 0.0110465 57.5486 0.130691L32.8106 10.7937C31.3686 11.4147 29.8486 12.0177 28.2926 12.5837C22.8191 14.5327 17.8366 17.6522 13.6926 21.7247C10.7006 24.6232 8.54383 28.2735 7.44863 32.2927C5.01663 31.5067 3.53063 30.4747 3.21363 29.3317C2.87063 28.0927 3.83163 26.2607 5.91863 24.1737C6.19425 23.8757 6.34382 23.4826 6.336 23.0767C6.32818 22.6709 6.16356 22.2838 5.87666 21.9966C5.58975 21.7095 5.20283 21.5445 4.79699 21.5363C4.39115 21.5281 3.99789 21.6773 3.69963 21.9527C0.688632 24.9597 -0.492368 27.7247 0.185632 30.1707C0.833632 32.5087 3.10963 34.2707 6.95763 35.4297C6.93163 35.8147 6.91763 36.2007 6.91763 36.5877C6.84624 40.5866 7.97629 44.515 10.1616 47.8647C12.2888 50.9302 14.9273 53.6072 17.9616 55.7787V67.3527C17.964 68.7444 18.5181 70.0785 19.5024 71.0624C20.4867 72.0463 21.8209 72.5998 23.2126 72.6017H28.7336C30.1262 72.6004 31.4614 72.0466 32.4463 71.062C33.4311 70.0774 33.985 68.7423 33.9866 67.3497V65.5897C36.202 65.9906 38.4483 66.1954 40.6996 66.2017C42.9493 66.2012 45.1947 66.0059 47.4106 65.6177V67.3557C47.4138 68.7467 47.9681 70.0798 48.9521 71.0631C49.9361 72.0463 51.2696 72.5996 52.6606 72.6017H58.1826C59.5752 72.6004 60.9104 72.0466 61.8953 71.062C62.8801 70.0774 63.434 68.7423 63.4356 67.3497V55.7787L63.8546 55.4667C67.8166 52.5117 71.0056 50.1357 72.8196 45.5207H74.7466C76.1392 45.5194 77.4744 44.9656 78.4593 43.981C79.4441 42.9964 79.998 41.6613 79.9996 40.2687V34.7467C79.9978 33.3542 79.4437 32.0192 78.459 31.0347C77.4742 30.0501 76.1392 29.4963 74.7466 29.4947H74.7476ZM76.8576 40.2687C76.8568 40.8281 76.6343 41.3643 76.2388 41.7598C75.8432 42.1553 75.307 42.3779 74.7476 42.3787H71.7126C71.3794 42.3777 71.0546 42.4826 70.7849 42.6784C70.5153 42.8741 70.3149 43.1506 70.2126 43.4677C68.7966 47.8587 66.0816 49.8827 61.9706 52.9467C61.626 53.204 61.2736 53.4674 60.9136 53.7367C60.7189 53.8831 60.561 54.0728 60.4521 54.2908C60.3433 54.5088 60.2867 54.7491 60.2866 54.9927V67.3527C60.2858 67.9121 60.0633 68.4483 59.6678 68.8438C59.2722 69.2393 58.736 69.4619 58.1766 69.4627H52.6606C52.1013 69.4619 51.565 69.2393 51.1695 68.8438C50.774 68.4483 50.5514 67.9121 50.5506 67.3527V63.6947C50.5505 63.4587 50.4973 63.2257 50.3948 63.0131C50.2923 62.8004 50.1433 62.6136 49.9588 62.4664C49.7743 62.3193 49.5589 62.2155 49.3288 62.163C49.0988 62.1104 48.8598 62.1103 48.6296 62.1627C43.4079 63.3604 37.9818 63.3522 32.7636 62.1387C32.5336 62.0865 32.2947 62.0867 32.0647 62.1394C31.8348 62.192 31.6196 62.2958 31.4352 62.4429C31.2508 62.5901 31.1018 62.7768 30.9994 62.9894C30.897 63.2019 30.8438 63.4348 30.8436 63.6707V67.3517C30.8428 67.9111 30.6203 68.4473 30.2248 68.8428C29.8292 69.2383 29.293 69.4609 28.7336 69.4617H23.2116C22.6523 69.4609 22.116 69.2383 21.7205 68.8428C21.325 68.4473 21.1024 67.9111 21.1016 67.3517V55.0017C21.1016 54.7577 21.0447 54.5171 20.9356 54.2989C20.8264 54.0807 20.6679 53.891 20.4726 53.7447C17.4844 51.6834 14.8838 49.1106 12.7906 46.1447C10.9311 43.3094 9.97787 39.9755 10.0576 36.5857C10.0576 26.8957 19.7576 19.0307 29.3646 15.5347C30.9786 14.9477 32.5556 14.3227 34.0526 13.6777L55.6996 4.34769L53.1126 13.0107C53.1126 13.0227 53.1056 13.0337 53.1026 13.0457L51.1536 19.5727C51.0945 19.7704 51.075 19.9778 51.096 20.1831C51.1171 20.3883 51.1784 20.5875 51.2764 20.769C51.4743 21.1358 51.8098 21.4088 52.2091 21.5282C52.6084 21.6475 53.0388 21.6034 53.4055 21.4054C53.7722 21.2075 54.0453 20.872 54.1646 20.4727L55.5996 15.6777C58.7582 17.3307 61.6803 19.4005 64.2876 21.8317C67.7436 25.0667 70.0326 28.4757 70.7326 31.4317C70.8141 31.7759 71.0095 32.0826 71.287 32.302C71.5644 32.5214 71.9079 32.6408 72.2616 32.6407H74.7486C75.308 32.6415 75.8442 32.864 76.2398 33.2596C76.6353 33.6551 76.8578 34.1913 76.8586 34.7507V40.2727L76.8576 40.2687Z" fill="#8D715E"/>
<path d="M41.454 24.1198C41.425 24.1198 41.396 24.1198 41.367 24.1198C41.338 24.1198 41.332 24.1198 41.315 24.1198C41.246 24.1198 41.177 24.1198 41.108 24.1198C38.8322 24.1204 36.5869 24.6433 34.545 25.6481C32.503 26.6529 30.7189 28.1129 29.3299 29.9157C27.9409 31.7185 26.9841 33.8159 26.5332 36.0466C26.0822 38.2773 26.1492 40.5817 26.7289 42.7824C27.3086 44.9832 28.3855 47.0215 29.8769 48.7406C31.3682 50.4597 33.2341 51.8136 35.331 52.6982C37.4278 53.5828 39.6997 53.9744 41.9717 53.8429C44.2437 53.7114 46.4552 53.0603 48.436 51.9398C48.6168 51.8387 48.7758 51.7029 48.9039 51.5401C49.032 51.3774 49.1267 51.1909 49.1824 50.9914C49.2382 50.7919 49.254 50.5834 49.2288 50.3778C49.2037 50.1722 49.1381 49.9736 49.036 49.7935C48.9338 49.6133 48.797 49.4551 48.6334 49.328C48.4699 49.2009 48.2828 49.1074 48.083 49.0529C47.8832 48.9984 47.6746 48.9839 47.4691 49.0103C47.2637 49.0367 47.0655 49.1035 46.886 49.2068C45.6634 49.8987 44.326 50.3645 42.938 50.5818V48.0148C44.1905 47.6372 45.2656 46.822 45.9671 45.7178C46.6686 44.6136 46.9497 43.294 46.7592 41.9997C46.5688 40.7055 45.9193 39.5228 44.9294 38.6676C43.9396 37.8123 42.6752 37.3414 41.367 37.3408C40.9868 37.3409 40.6151 37.2284 40.2989 37.0173C39.9827 36.8063 39.7362 36.5061 39.5906 36.155C39.445 35.8038 39.4068 35.4173 39.4808 35.0444C39.5549 34.6715 39.7378 34.3289 40.0066 34.06C40.2754 33.7912 40.6178 33.608 40.9907 33.5338C41.3635 33.4595 41.75 33.4975 42.1013 33.643C42.4526 33.7884 42.7528 34.0347 42.964 34.3508C43.1753 34.6669 43.288 35.0386 43.288 35.4188C43.288 35.8355 43.4536 36.2353 43.7483 36.53C44.043 36.8247 44.4427 36.9902 44.8595 36.9902C45.2763 36.9902 45.676 36.8247 45.9707 36.53C46.2654 36.2353 46.431 35.8355 46.431 35.4188C46.4309 34.35 46.093 33.3086 45.4654 32.4434C44.8379 31.5783 43.9529 30.9337 42.937 30.6018V27.4018C45.695 27.8415 48.2062 29.2492 50.0204 31.3725C51.8345 33.4958 52.8331 36.1959 52.837 38.9888C52.8368 39.5822 52.7924 40.1749 52.704 40.7617C52.6417 41.1738 52.7456 41.5937 52.9928 41.9291C53.2401 42.2645 53.6105 42.4879 54.0225 42.5503C54.4345 42.6126 54.8544 42.5087 55.1898 42.2614C55.5252 42.0141 55.7487 41.6438 55.811 41.2318C56.1279 39.1426 55.9964 37.0099 55.4251 34.9755C54.8538 32.9411 53.8559 31.0516 52.4977 29.4328C51.1395 27.814 49.4522 26.503 47.5481 25.5869C45.6439 24.6708 43.5665 24.1707 41.454 24.1198ZM37.785 39.0018C38.2542 39.4734 38.8123 39.8473 39.427 40.1019C40.0417 40.3564 40.7007 40.4866 41.366 40.4848C41.8327 40.4851 42.2884 40.6268 42.673 40.8912C43.0575 41.1556 43.353 41.5303 43.5205 41.9659C43.688 42.4015 43.7195 42.8776 43.6111 43.3316C43.5026 43.7855 43.2592 44.1959 42.9129 44.5088C42.5666 44.8217 42.1337 45.0223 41.6711 45.0843C41.2085 45.1463 40.738 45.0667 40.3216 44.856C39.9051 44.6453 39.5623 44.3135 39.3381 43.9041C39.114 43.4947 39.0191 43.0271 39.066 42.5628C39.1074 42.1481 38.9823 41.734 38.7184 41.4115C38.4544 41.089 38.0732 40.8846 37.6585 40.8433C37.2438 40.8019 36.8297 40.9269 36.5073 41.1909C36.1848 41.4548 35.9804 41.8361 35.939 42.2508C35.8147 43.5101 36.1318 44.7736 36.8361 45.825C37.5404 46.8764 38.5881 47.6504 39.8 48.0148V50.6468C36.9341 50.3244 34.2874 48.9576 32.3655 46.8074C30.4435 44.6571 29.3811 41.8742 29.3811 38.9902C29.3811 36.1063 30.4435 33.3234 32.3655 31.1732C34.2874 29.0229 36.9341 27.6561 39.8 27.3338V30.6018C38.976 30.8702 38.2347 31.3455 37.6469 31.9823C37.0592 32.6192 36.6446 33.3961 36.443 34.2389C36.2413 35.0817 36.2592 35.9622 36.4951 36.7961C36.7309 37.63 37.1768 38.3894 37.79 39.0018H37.785Z" fill="#FCC865"/>
<path d="M63.3998 27.9887C63.2435 27.6024 62.9401 27.2941 62.5564 27.1315C62.1727 26.9689 61.7401 26.9654 61.3538 27.1217C60.9676 27.2781 60.6592 27.5815 60.4966 27.9652C60.334 28.3489 60.3305 28.7814 60.4868 29.1677L60.5138 29.2357C60.5913 29.427 60.7056 29.6012 60.8503 29.7482C60.995 29.8953 61.1673 30.0125 61.3573 30.093C61.5473 30.1735 61.7513 30.2158 61.9576 30.2175C62.1639 30.2191 62.3686 30.1801 62.5598 30.1027C62.7511 30.0253 62.9253 29.911 63.0723 29.7663C63.2194 29.6216 63.3366 29.4493 63.4171 29.2593C63.4976 29.0693 63.5399 28.8653 63.5416 28.659C63.5432 28.4526 63.5043 28.248 63.4268 28.0567L63.3998 27.9887Z" fill="#8D715E"/>
<path d="M53.3998 46.2017C53.3224 46.0105 53.2081 45.8363 53.0634 45.6892C52.9187 45.5422 52.7464 45.425 52.5564 45.3445C52.3664 45.264 52.1624 45.2217 51.9561 45.22C51.7498 45.2183 51.5451 45.2573 51.3538 45.3347C51.1626 45.4122 50.9884 45.5265 50.8413 45.6712C50.6943 45.8159 50.5771 45.9882 50.4966 46.1782C50.4161 46.3682 50.3738 46.5722 50.3721 46.7785C50.3704 46.9848 50.4094 47.1895 50.4868 47.3807L50.5138 47.4487C50.6702 47.835 50.9736 48.1434 51.3573 48.306C51.741 48.4686 52.1736 48.4721 52.5598 48.3157C52.9461 48.1594 53.2545 47.856 53.4171 47.4723C53.5797 47.0886 53.5832 46.656 53.4268 46.2697L53.3998 46.2017Z" fill="#8D715E"/>
<path d="M6.84977 18.6417C7.00546 19.0283 7.30832 19.3372 7.69174 19.5004C8.07516 19.6637 8.50772 19.6679 8.89427 19.5122C9.28083 19.3566 9.5897 19.0537 9.75295 18.6703C9.9162 18.2869 9.92046 17.8543 9.76477 17.4677L9.73677 17.4017C9.58109 17.0152 9.27823 16.7063 8.89481 16.5431C8.51139 16.3798 8.07883 16.3756 7.69227 16.5312C7.30572 16.6869 6.99684 16.9898 6.83359 17.3732C6.67034 17.7566 6.66609 18.1892 6.82177 18.5757L6.84977 18.6417Z" fill="#FCC865"/>
</svg>
