<svg width="80" height="69" viewBox="0 0 80 69" fill="none" xmlns="http://www.w3.org/2000/svg">
<path d="M74.3998 39.8339L72.3278 31.5468C72.6082 31.4868 72.8596 31.3322 73.0399 31.1093C73.2203 30.8863 73.3187 30.6089 73.3187 30.3222V28.9862C73.3171 27.5914 72.7623 26.2538 71.7761 25.2675C70.7898 24.2812 69.4526 23.7261 68.0577 23.7245H58.6218V20.9696C58.621 20.2832 58.3479 19.6259 57.8625 19.1405C57.3772 18.6552 56.7192 18.3815 56.0328 18.3807H38.4877L49.1498 14.1161C49.4493 13.9866 49.6864 13.7449 49.8108 13.4432C49.9352 13.1416 49.937 12.8038 49.8159 12.5009C49.6947 12.1979 49.4602 11.9539 49.1621 11.8212C48.864 11.6884 48.5259 11.6773 48.2197 11.7899L39.4897 15.2821C42.1497 13.5751 44.7818 11.6967 45.7838 10.3817C46.2604 9.77363 46.6115 9.07681 46.8167 8.33192C47.0218 7.58703 47.077 6.80925 46.9789 6.04286C46.8809 5.27647 46.6316 4.53731 46.2455 3.86805C45.8595 3.1988 45.3443 2.61296 44.7299 2.14442C44.1156 1.67589 43.4142 1.33385 42.6667 1.13856C41.9191 0.943272 41.1403 0.898545 40.3752 1.00673C39.6102 1.11491 38.8743 1.37354 38.2102 1.76844C37.5461 2.16335 36.9671 2.68602 36.5068 3.30653C35.0818 5.17553 33.2008 10.4278 31.9838 14.1288C30.7668 10.4288 28.8838 5.17553 27.4608 3.30653C26.5145 2.09928 25.1309 1.31367 23.6094 1.11903C22.0879 0.92439 20.551 1.33632 19.3313 2.26649C18.1116 3.19666 17.3074 4.56997 17.0926 6.08876C16.8778 7.60754 17.2698 9.14984 18.1838 10.3817C19.1838 11.6957 21.8178 13.5741 24.4778 15.2821L15.7477 11.7899C15.594 11.7234 15.4285 11.6888 15.261 11.6874C15.0936 11.686 14.9275 11.7173 14.7727 11.7811C14.6179 11.845 14.4774 11.9394 14.3596 12.0585C14.2418 12.1775 14.1491 12.319 14.0869 12.4745C14.0247 12.63 13.9944 12.7963 13.9976 12.9638C14.0009 13.1312 14.0376 13.2971 14.1058 13.4501C14.1739 13.6031 14.272 13.7409 14.3943 13.8554C14.5166 13.9698 14.6606 14.0583 14.8177 14.1161L25.4808 18.3807H7.93274C7.24634 18.3815 6.58826 18.6552 6.10291 19.1405C5.61755 19.6259 5.34454 20.2832 5.34375 20.9696V43.6835C5.33902 43.8509 5.3679 44.0176 5.42871 44.1737C5.48953 44.3298 5.58104 44.4725 5.69781 44.5927C5.81459 44.7128 5.95427 44.8087 6.10858 44.8739C6.2629 44.9391 6.42873 44.9725 6.59625 44.9725C6.76378 44.9725 6.92961 44.9391 7.08392 44.8739C7.23824 44.8087 7.37792 44.7128 7.49469 44.5927C7.61146 44.4725 7.70298 44.3298 7.76379 44.1737C7.82461 44.0176 7.85349 43.8509 7.84875 43.6835V20.9696C7.84875 20.9476 7.85748 20.9266 7.87305 20.911C7.88861 20.8955 7.90975 20.8866 7.93176 20.8866H56.0317C56.0538 20.8866 56.0749 20.8955 56.0905 20.911C56.106 20.9266 56.1147 20.9476 56.1147 20.9696V43.6835C56.124 44.0095 56.26 44.3194 56.4938 44.5468C56.7277 44.7741 57.0411 44.9013 57.3672 44.9013C57.6934 44.9013 58.0068 44.7741 58.2407 44.5468C58.4745 44.3194 58.6105 44.0095 58.6198 43.6835V42.2636H73.4058C74.2711 42.2649 75.1137 42.5403 75.8132 43.0497C76.5126 43.5591 77.033 44.2764 77.2997 45.0995H73.3998C73.0675 45.0995 72.7487 45.2317 72.5137 45.4667C72.2787 45.7017 72.1467 46.0201 72.1467 46.3524V49.0253C72.1478 50.0659 72.5617 51.0629 73.2975 51.7987C74.0334 52.5346 75.0311 52.949 76.0718 52.9501H77.4918V58.4608H74.2197C73.6813 56.9009 72.6698 55.5475 71.3259 54.5897C69.9821 53.6319 68.373 53.1171 66.7228 53.1171C65.0726 53.1171 63.4634 53.6319 62.1196 54.5897C60.7757 55.5475 59.7642 56.9009 59.2258 58.4608H58.6257V49.0282C58.6165 48.7022 58.4805 48.3923 58.2466 48.1649C58.0128 47.9376 57.6994 47.8104 57.3732 47.8104C57.047 47.8104 56.7338 47.9376 56.4999 48.1649C56.266 48.3923 56.1299 48.7022 56.1207 49.0282V58.4638H30.1277C29.5893 56.9038 28.5778 55.5505 27.2339 54.5927C25.8901 53.6349 24.281 53.121 22.6307 53.121C20.9805 53.121 19.3714 53.6349 18.0276 54.5927C16.6838 55.5505 15.6721 56.9038 15.1337 58.4638H7.93378C7.91176 58.4638 7.89063 58.4549 7.87506 58.4393C7.8595 58.4238 7.85077 58.4028 7.85077 58.3807V55.6249H13.2787C13.6048 55.6157 13.9144 55.4799 14.1418 55.246C14.3692 55.0121 14.4963 54.6981 14.4963 54.372C14.4963 54.0458 14.3692 53.7328 14.1418 53.4989C13.9144 53.265 13.6048 53.1292 13.2787 53.12H1.25275C0.926689 53.1292 0.617078 53.265 0.389709 53.4989C0.162341 53.7328 0.0351562 54.0458 0.0351562 54.372C0.0351562 54.6981 0.162341 55.0121 0.389709 55.246C0.617078 55.4799 0.926689 55.6157 1.25275 55.6249H5.34473V58.3807C5.34552 59.067 5.61843 59.7255 6.10358 60.2108C6.58872 60.6962 7.24651 60.9686 7.93274 60.9696H14.6998V61.0526C14.6998 63.1566 15.5355 65.1743 17.0233 66.662C18.511 68.1497 20.5288 68.9862 22.6328 68.9862C24.7367 68.9862 26.7545 68.1497 28.2422 66.662C29.73 65.1743 30.5657 63.1566 30.5657 61.0526V60.9696H58.7958V61.0526C58.7958 63.1566 59.6315 65.1743 61.1193 66.662C62.607 68.1497 64.6248 68.9862 66.7288 68.9862C68.8327 68.9862 70.8505 68.1497 72.3383 66.662C73.826 65.1743 74.6617 63.1566 74.6617 61.0526V60.9696H78.7557C79.0865 60.9672 79.4029 60.8342 79.6359 60.5995C79.869 60.3648 79.9998 60.0474 79.9998 59.7167V46.3563C79.9979 44.7799 79.4324 43.2555 78.4055 42.0595C77.3785 40.8634 75.9578 40.0741 74.3998 39.8339ZM27.0157 13.9159C22.0747 10.8459 20.6087 9.43315 20.1747 8.86415C19.6394 8.16225 19.4048 7.27611 19.5226 6.40126C19.6404 5.5264 20.1008 4.73445 20.8027 4.19911C21.5046 3.66377 22.3905 3.42899 23.2653 3.54677C24.1402 3.66454 24.9324 4.12514 25.4678 4.82704C26.6798 6.41604 28.5768 11.7631 29.8298 15.6161C28.9848 15.1181 28.0127 14.5359 27.0157 13.9159ZM34.1368 15.6161C35.3898 11.7631 37.2868 6.41604 38.4988 4.82704C39.0341 4.12514 39.8263 3.66454 40.7012 3.54677C41.576 3.42899 42.4619 3.66377 43.1638 4.19911C43.8657 4.73445 44.3261 5.5264 44.4439 6.40126C44.5617 7.27611 44.3271 8.16225 43.7917 8.86415C43.3577 9.43315 41.8918 10.8459 36.9518 13.9159C35.9538 14.5349 34.9817 15.1181 34.1357 15.6161H34.1368ZM58.6218 26.2313H68.0577C68.7884 26.2321 69.489 26.5223 70.0057 27.039C70.5224 27.5556 70.813 28.2565 70.8138 28.9872V29.0702H58.6218V26.2313ZM58.6218 39.7587V31.5751H69.7518L71.7997 39.7587H58.6218ZM22.6307 66.4813C21.5572 66.4813 20.5077 66.1627 19.6151 65.5663C18.7225 64.9699 18.0268 64.1216 17.616 63.1298C17.2051 62.1379 17.0976 61.047 17.3071 59.994C17.5165 58.9411 18.0335 57.9739 18.7926 57.2147C19.5517 56.4556 20.5188 55.9388 21.5718 55.7294C22.6247 55.5199 23.7161 55.6271 24.7079 56.038C25.6998 56.4488 26.5475 57.1444 27.144 58.037C27.7404 58.9296 28.0588 59.9791 28.0588 61.0526C28.0572 62.4917 27.4848 63.8719 26.4672 64.8895C25.4496 65.9071 24.0698 66.4798 22.6307 66.4813ZM66.7228 66.4813C65.6492 66.4813 64.5997 66.1627 63.7071 65.5663C62.8145 64.9699 62.1188 64.1216 61.7079 63.1298C61.2971 62.1379 61.1896 61.047 61.399 59.994C61.6085 58.9411 62.1255 57.9739 62.8846 57.2147C63.6437 56.4556 64.6109 55.9388 65.6638 55.7294C66.7168 55.5199 67.8082 55.6271 68.8 56.038C69.7918 56.4488 70.6395 57.1444 71.236 58.037C71.8324 58.9296 72.1508 59.9791 72.1508 61.0526C72.1492 62.4919 71.5767 63.8719 70.5588 64.8895C69.541 65.9072 68.161 66.48 66.7217 66.4813H66.7228ZM77.4998 50.4481H76.0798C75.7032 50.4479 75.3422 50.2984 75.0759 50.0321C74.8097 49.7659 74.66 49.4047 74.6597 49.0282V47.6083H77.4988V50.4472L77.4998 50.4481Z" fill="#8D715E"/>
<path d="M22.6306 58.4648C22.1186 58.4648 21.618 58.6169 21.1923 58.9014C20.7665 59.1859 20.4347 59.5904 20.2387 60.0635C20.0428 60.5366 19.9915 61.0574 20.0914 61.5596C20.1913 62.0618 20.4378 62.5227 20.7999 62.8848C21.162 63.2468 21.6233 63.4929 22.1255 63.5928C22.6278 63.6927 23.1483 63.6422 23.6214 63.4463C24.0945 63.2503 24.4988 62.9179 24.7833 62.4922C25.0678 62.0664 25.2196 61.5658 25.2196 61.0537C25.2188 60.3673 24.9458 59.71 24.4604 59.2246C23.9751 58.7393 23.317 58.4656 22.6306 58.4648ZM66.7216 58.4648C66.2096 58.4648 65.709 58.6169 65.2833 58.9014C64.8575 59.1859 64.5257 59.5904 64.3297 60.0635C64.1338 60.5366 64.0825 61.0574 64.1824 61.5596C64.2823 62.0618 64.5289 62.5227 64.8909 62.8848C65.253 63.2468 65.7143 63.4929 66.2166 63.5928C66.7188 63.6927 67.2393 63.6422 67.7124 63.4463C68.1855 63.2503 68.5898 62.9179 68.8743 62.4922C69.1588 62.0664 69.3106 61.5658 69.3106 61.0537C69.3098 60.3673 69.0368 59.71 68.5515 59.2246C68.0661 58.7393 67.408 58.4656 66.7216 58.4648ZM52.0247 53.1201H33.3186C32.9925 53.1293 32.6829 53.2651 32.4556 53.499C32.2282 53.7329 32.101 54.0459 32.101 54.3721C32.101 54.6983 32.2282 55.0122 32.4556 55.2461C32.6829 55.48 32.9925 55.6158 33.3186 55.625H52.0247C52.3507 55.6158 52.6603 55.48 52.8877 55.2461C53.1151 55.0122 53.2422 54.6983 53.2422 54.3721C53.2422 54.0459 53.1151 53.7329 52.8877 53.499C52.6603 53.2651 52.3507 53.1293 52.0247 53.1201ZM19.9576 47.7764H3.92462C3.59856 47.7856 3.28895 47.9214 3.06158 48.1553C2.83422 48.3892 2.70703 48.7021 2.70703 49.0283C2.70703 49.3545 2.83422 49.6685 3.06158 49.9023C3.28895 50.1362 3.59856 50.272 3.92462 50.2812H19.9576C20.2837 50.272 20.5933 50.1362 20.8207 49.9023C21.048 49.6685 21.1752 49.3545 21.1752 49.0283C21.1752 48.7021 21.048 48.3892 20.8207 48.1553C20.5933 47.9214 20.2837 47.7856 19.9576 47.7764Z" fill="#8D715E"/>
<path d="M19.9578 29.0703H14.6138C14.4493 29.0703 14.2864 29.1021 14.1344 29.165C13.9823 29.228 13.8441 29.3202 13.7278 29.4365C13.6114 29.5529 13.5192 29.6917 13.4562 29.8438C13.3932 29.9958 13.3609 30.1587 13.3609 30.3232V41.0107C13.3561 41.1782 13.385 41.3449 13.4458 41.501C13.5066 41.6571 13.5981 41.7998 13.7149 41.9199C13.8317 42.04 13.9714 42.135 14.1257 42.2002C14.28 42.2654 14.4458 42.2998 14.6134 42.2998C14.7809 42.2998 14.9467 42.2654 15.101 42.2002C15.2553 42.135 15.395 42.04 15.5117 41.9199C15.6285 41.7998 15.72 41.6571 15.7808 41.501C15.8417 41.3449 15.8706 41.1782 15.8659 41.0107V36.9189H18.6218C18.9479 36.9097 19.2575 36.7739 19.4849 36.54C19.7122 36.3062 19.8394 35.9922 19.8394 35.666C19.8394 35.3398 19.7122 35.0269 19.4849 34.793C19.2575 34.5591 18.9479 34.4233 18.6218 34.4141H15.8659V31.5752H19.9578C20.2839 31.566 20.5935 31.4302 20.8209 31.1963C21.0482 30.9624 21.1754 30.6485 21.1754 30.3223C21.1754 29.9961 21.0482 29.6831 20.8209 29.4492C20.5935 29.2153 20.2839 29.0795 19.9578 29.0703ZM29.8158 37.5068C30.6448 36.9665 31.277 36.173 31.6182 35.2441C31.9594 34.3153 31.9913 33.301 31.7092 32.3525C31.4272 31.404 30.8463 30.572 30.0529 29.9805C29.2596 29.389 28.2964 29.0699 27.3068 29.0703H23.9668C23.6345 29.0703 23.3158 29.2015 23.0808 29.4365C22.8458 29.6715 22.7138 29.9909 22.7138 30.3232V41.0107C22.7091 41.1782 22.738 41.3449 22.7988 41.501C22.8596 41.6571 22.9511 41.7998 23.0679 41.9199C23.1847 42.04 23.3243 42.135 23.4787 42.2002C23.633 42.2654 23.7988 42.2998 23.9663 42.2998C24.1338 42.2998 24.2997 42.2654 24.454 42.2002C24.6083 42.135 24.748 42.04 24.8648 41.9199C24.9815 41.7998 25.073 41.6571 25.1339 41.501C25.1947 41.3449 25.2236 41.1782 25.2188 41.0107V38.2559H27.2998L29.5998 41.7061C29.6888 41.8479 29.8054 41.9704 29.9426 42.0664C30.0798 42.1625 30.2349 42.2305 30.3986 42.2656C30.5624 42.3007 30.7316 42.3019 30.8961 42.2705C31.0606 42.2391 31.2171 42.175 31.3565 42.082C31.4958 41.9891 31.6151 41.8693 31.7073 41.7295C31.7995 41.5897 31.8627 41.4332 31.8933 41.2686C31.9238 41.1039 31.9209 40.9341 31.885 40.7705C31.849 40.6069 31.7806 40.4531 31.6838 40.3164L29.8158 37.5068ZM27.3068 35.75H25.2188V31.5752H27.3068C27.5848 31.5691 27.8612 31.6185 28.1198 31.7207C28.3784 31.8229 28.6139 31.9755 28.8127 32.1699C29.0114 32.3644 29.1694 32.5962 29.2772 32.8525C29.385 33.1088 29.4405 33.3841 29.4405 33.6621C29.4405 33.9402 29.385 34.2154 29.2772 34.4717C29.1694 34.728 29.0114 34.9608 28.8127 35.1553C28.6139 35.3497 28.3784 35.5023 28.1198 35.6045C27.8612 35.7067 27.5848 35.7561 27.3068 35.75ZM39.9998 39.7588H35.9078V36.915H38.6629C38.9889 36.9058 39.2985 36.77 39.5259 36.5361C39.7533 36.3023 39.8804 35.9883 39.8804 35.6621C39.8804 35.3359 39.7533 35.023 39.5259 34.7891C39.2985 34.5552 38.9889 34.4194 38.6629 34.4102H35.9088V31.5752H39.9998C40.3259 31.566 40.6355 31.4302 40.8629 31.1963C41.0902 30.9624 41.2174 30.6485 41.2174 30.3223C41.2174 29.9961 41.0902 29.6831 40.8629 29.4492C40.6355 29.2153 40.3259 29.0795 39.9998 29.0703H34.6558C34.4911 29.0699 34.3279 29.1013 34.1756 29.1641C34.0233 29.2268 33.8849 29.3193 33.7683 29.4356C33.6516 29.5518 33.559 29.6897 33.4958 29.8418C33.4326 29.9939 33.4 30.1576 33.3999 30.3223V41.0107C33.3999 41.1753 33.4322 41.3382 33.4952 41.4902C33.5582 41.6423 33.6504 41.7811 33.7668 41.8975C33.8831 42.0138 34.0213 42.106 34.1734 42.1689C34.3254 42.2319 34.4883 42.2637 34.6528 42.2637H39.9998C40.1673 42.2684 40.334 42.2395 40.4901 42.1787C40.6462 42.1179 40.7885 42.0269 40.9086 41.9102C41.0288 41.7934 41.1242 41.6533 41.1894 41.499C41.2546 41.3447 41.2882 41.1792 41.2882 41.0117C41.2882 40.8442 41.2546 40.6778 41.1894 40.5234C41.1242 40.3691 41.0288 40.2301 40.9086 40.1133C40.7885 39.9965 40.6462 39.9046 40.4901 39.8438C40.334 39.7829 40.1673 39.7541 39.9998 39.7588ZM49.3529 39.7588H45.2608V36.9199H46.6809C47.0069 36.9107 47.3165 36.7749 47.5439 36.541C47.7713 36.3071 47.8984 35.9942 47.8984 35.668C47.8984 35.3418 47.7713 35.0278 47.5439 34.7939C47.3165 34.5601 47.0069 34.4243 46.6809 34.415H45.2608V31.5752H49.3529C49.6789 31.566 49.9885 31.4302 50.2159 31.1963C50.4433 30.9624 50.5704 30.6485 50.5704 30.3223C50.5704 29.9961 50.4433 29.6831 50.2159 29.4492C49.9885 29.2153 49.6789 29.0795 49.3529 29.0703H44.0078C43.6755 29.0703 43.3568 29.2015 43.1218 29.4365C42.8869 29.6715 42.7548 29.9909 42.7548 30.3232V41.0107C42.7548 41.3431 42.8869 41.6625 43.1218 41.8975C43.3568 42.1324 43.6755 42.2637 44.0078 42.2637H49.3529C49.5203 42.2684 49.687 42.2395 49.8431 42.1787C49.9992 42.1179 50.1415 42.0269 50.2616 41.9102C50.3817 41.7934 50.4772 41.6533 50.5424 41.499C50.6076 41.3447 50.6412 41.1792 50.6412 41.0117C50.6412 40.8442 50.6076 40.6778 50.5424 40.5234C50.4772 40.3691 50.3817 40.2301 50.2616 40.1133C50.1415 39.9965 49.9992 39.9046 49.8431 39.8438C49.687 39.7829 49.5203 39.7541 49.3529 39.7588Z" fill="#FCC865"/>
</svg>
