<svg width="40" height="40" viewBox="0 0 40 40" fill="none" xmlns="http://www.w3.org/2000/svg">
<path d="M35.8066 11.8748L20.7699 3.54149C20.5229 3.40537 20.2454 3.33398 19.9633 3.33398C19.6812 3.33398 19.4037 3.40537 19.1566 3.54149L4.19328 11.8082C3.93334 11.9521 3.7166 12.1629 3.56552 12.4188C3.41443 12.6746 3.3345 12.9662 3.33399 13.2634C3.33348 13.5605 3.41241 13.8524 3.56262 14.1087C3.71282 14.3651 3.92883 14.5767 4.18828 14.7215L19.2249 23.1215C19.4725 23.2606 19.7516 23.3338 20.0356 23.3341C20.3195 23.3344 20.5988 23.2617 20.8466 23.1232L35.8099 14.7898C36.0699 14.6453 36.2864 14.4338 36.437 14.1773C36.5877 13.9209 36.6669 13.6288 36.6666 13.3313C36.6662 13.0339 36.5863 12.742 36.4351 12.4859C36.2839 12.2298 36.0669 12.0188 35.8066 11.8748Z" fill="#5F4F45"/>
<path d="M19.9995 26.4263L5.80779 18.543L4.18945 21.4563L19.1895 29.7896C19.437 29.9271 19.7155 29.9992 19.9986 29.9992C20.2818 29.9992 20.5602 29.9271 20.8078 29.7896L35.8078 21.4563L34.1895 18.543L19.9995 26.4263Z" fill="#5F4F45"/>
<path d="M19.9995 33.0943L5.80779 25.2109L4.18945 28.1243L19.1895 36.4576C19.437 36.5951 19.7155 36.6672 19.9986 36.6672C20.2818 36.6672 20.5602 36.5951 20.8078 36.4576L35.8078 28.1243L34.1895 25.2109L19.9995 33.0943Z" fill="#5F4F45"/>
</svg>
