<svg width="30" height="30" viewBox="0 0 30 30" fill="none" xmlns="http://www.w3.org/2000/svg">
<g clip-path="url(#clip0_120_296)">
<path fill-rule="evenodd" clip-rule="evenodd" d="M15.9999 4.109e-06C15.8305 -0.12058 15.2078 4.109e-06 14.9999 4.109e-06C14.7919 4.109e-06 14.1692 -0.12058 13.9999 4.109e-06L-0.000146598 10C-0.129937 10.0924 0.0729099 10.8584 -0.000146598 11C-0.0732031 11.1416 -4.83543e-05 10.8407 -0.000146598 11V29C-0.000146598 29.2652 -0.187683 29.8125 -0.000146598 30C0.18739 30.1875 0.734637 30 0.999853 30H3.99985V16H13.9999V30H28.9999C29.2651 30 29.8123 30.1875 29.9999 30C30.1874 29.8125 29.9999 29.2652 29.9999 29V11C29.9998 10.8407 30.0729 11.1416 29.9999 11C29.9268 10.8584 30.1296 10.0924 29.9999 10L27.9999 9V4H25.9999V8L15.9999 4.109e-06ZM21.9999 24V16H23.9999V24H21.9999Z" fill="#5F4F45"/>
<path d="M12 30V24H10V22H12V18H6V30H12Z" fill="#5F4F45"/>
</g>
<defs>
<clipPath id="clip0_120_296">
<rect width="30" height="30" fill="white"/>
</clipPath>
</defs>
</svg>
