<svg width="70" height="70" viewBox="0 0 70 70" fill="none" xmlns="http://www.w3.org/2000/svg">
<path d="M69.4237 19.9944L35.5904 0.161104C35.4159 0.0587647 35.2179 0.00356647 35.0157 0.000839407C34.8135 -0.00188765 34.614 0.0475551 34.4369 0.145154L0.603556 18.8118C0.42083 18.9125 0.268413 19.0606 0.162259 19.2402C0.0561046 19.4198 9.82405e-05 19.6248 0 19.8334V68.8334C0 69.1428 0.122909 69.4395 0.341702 69.6583C0.560494 69.8771 0.857247 70.0001 1.16667 70.0001H7C7.30942 70.0001 7.60617 69.8771 7.82497 69.6583C8.04376 69.4395 8.16667 69.1428 8.16667 68.8334V28.0001H61.8333V68.8334C61.8333 69.1428 61.9562 69.4395 62.175 69.6583C62.3938 69.8771 62.6906 70.0001 63 70.0001H68.8333C69.1428 70.0001 69.4395 69.8771 69.6583 69.6583C69.8771 69.4395 70 69.1428 70 68.8334V21.0001C69.9999 20.7968 69.9466 20.5969 69.8455 20.4205C69.7444 20.2441 69.5991 20.0973 69.4237 19.9944ZM67.6667 67.6667H64.1667V26.8334C64.1667 26.524 64.0438 26.2273 63.825 26.0085C63.6062 25.7897 63.3094 25.6667 63 25.6667H7C6.69058 25.6667 6.39383 25.7897 6.17504 26.0085C5.95624 26.2273 5.83333 26.524 5.83333 26.8334V67.6667H2.33333V20.5216L34.9829 2.50811L67.6667 21.6685V67.6667Z" fill="#8D715E"/>
<path d="M58.3337 53.6658H44.3337C44.0242 53.6658 43.7275 53.7888 43.5087 54.0076C43.2899 54.2264 43.167 54.523 43.167 54.8324V68.8324C43.167 69.1419 43.2899 69.4385 43.5087 69.6573C43.7275 69.8761 44.0242 69.9991 44.3337 69.9991H58.3337C58.6431 69.9991 58.9398 69.8761 59.1586 69.6573C59.3774 69.4385 59.5003 69.1419 59.5003 68.8324V54.8324C59.5003 54.523 59.3774 54.2264 59.1586 54.0076C58.9398 53.7888 58.6431 53.6658 58.3337 53.6658ZM57.167 67.6658H45.5003V55.9991H57.167V67.6658Z" fill="#FCC865"/>
<path d="M52.5003 54.8324V58.3324H50.167V54.8324H47.8337V59.4991C47.8337 59.8085 47.9566 60.1052 48.1754 60.324C48.3942 60.5428 48.6909 60.6658 49.0003 60.6658H53.667C53.9764 60.6658 54.2732 60.5428 54.492 60.324C54.7108 60.1052 54.8337 59.8085 54.8337 59.4991V54.8324H52.5003ZM44.3337 53.6658H30.3337C30.0242 53.6658 29.7275 53.7888 29.5087 54.0076C29.2899 54.2264 29.167 54.523 29.167 54.8324V68.8324C29.167 69.1419 29.2899 69.4385 29.5087 69.6573C29.7275 69.8761 30.0242 69.9991 30.3337 69.9991H44.3337C44.6431 69.9991 44.9398 69.8761 45.1586 69.6573C45.3774 69.4385 45.5003 69.1419 45.5003 68.8324V54.8324C45.5003 54.523 45.3774 54.2264 45.1586 54.0076C44.9398 53.7888 44.6431 53.6658 44.3337 53.6658ZM43.167 67.6658H31.5003V55.9991H43.167V67.6658Z" fill="#FCC865"/>
<path d="M38.4997 54.8324V58.3324H36.1663V54.8324H33.833V59.4991C33.833 59.8085 33.9559 60.1052 34.1747 60.324C34.3935 60.5428 34.6903 60.6658 34.9997 60.6658H39.6663C39.9758 60.6658 40.2725 60.5428 40.4913 60.324C40.7101 60.1052 40.833 59.8085 40.833 59.4991V54.8324H38.4997ZM58.333 39.6658H44.333C44.0236 39.6658 43.7268 39.7888 43.508 40.0076C43.2893 40.2264 43.1663 40.523 43.1663 40.8324V54.8324C43.1663 55.1419 43.2893 55.4385 43.508 55.6573C43.7268 55.8761 44.0236 55.9991 44.333 55.9991H58.333C58.6424 55.9991 58.9392 55.8761 59.158 55.6573C59.3768 55.4385 59.4997 55.1419 59.4997 54.8324V40.8324C59.4997 40.523 59.3768 40.2264 59.158 40.0076C58.9392 39.7888 58.6424 39.6658 58.333 39.6658ZM57.1663 53.6658H45.4997V41.9991H57.1663V53.6658Z" fill="#FCC865"/>
<path d="M52.4997 40.8325V44.3325H50.1663V40.8325H47.833V45.4992C47.833 45.8086 47.9559 46.1053 48.1747 46.3241C48.3935 46.5428 48.6903 46.6659 48.9997 46.6659H53.6663C53.9758 46.6659 54.2725 46.5428 54.4913 46.3241C54.7101 46.1053 54.833 45.8086 54.833 45.4992V40.8325H52.4997Z" fill="#FCC865"/>
<path d="M7 34.9992H63V37.3325H7V34.9992ZM7 30.3325H63V32.6659H7V30.3325ZM40.8333 16.3325H29.1667C28.8572 16.3325 28.5605 16.4555 28.3417 16.6743C28.1229 16.8931 28 17.1898 28 17.4992V22.1659C28 22.4753 28.1229 22.7719 28.3417 22.9907C28.5605 23.2095 28.8572 23.3325 29.1667 23.3325H40.8333C41.1428 23.3325 41.4395 23.2095 41.6583 22.9907C41.8771 22.7719 42 22.4753 42 22.1659V17.4992C42 17.1898 41.8771 16.8931 41.6583 16.6743C41.4395 16.4555 41.1428 16.3325 40.8333 16.3325ZM39.6667 20.9992H30.3333V18.6659H39.6667V20.9992Z" fill="#8D715E"/>
</svg>
