<svg width="64" height="80" viewBox="0 0 64 80" fill="none" xmlns="http://www.w3.org/2000/svg">
<path d="M32.1681 4.23633C31.4581 4.23633 30.764 4.44635 30.1736 4.84082C29.5832 5.23529 29.1232 5.79616 28.8514 6.45215C28.5797 7.10814 28.5086 7.82998 28.6471 8.52637C28.7856 9.22276 29.1276 9.86219 29.6296 10.3643C30.1317 10.8663 30.7714 11.2082 31.4678 11.3467C32.1642 11.4852 32.886 11.4143 33.542 11.1426C34.198 10.8709 34.7586 10.4107 35.1531 9.82031C35.5475 9.22994 35.7582 8.53621 35.7582 7.82617C35.7571 6.87437 35.3785 5.96209 34.7054 5.28906C34.0324 4.61604 33.1199 4.23739 32.1681 4.23633ZM32.1681 8.89453C31.9567 8.89453 31.75 8.83231 31.5742 8.71484C31.3984 8.59738 31.2615 8.43069 31.1805 8.23535C31.0996 8.04002 31.0784 7.82455 31.1196 7.61719C31.1609 7.40982 31.2627 7.21981 31.4122 7.07031C31.5617 6.92081 31.7522 6.81859 31.9596 6.77734C32.167 6.7361 32.3819 6.75698 32.5773 6.83789C32.7726 6.9188 32.9395 7.05663 33.057 7.23242C33.1745 7.40822 33.2372 7.61474 33.2372 7.82617C33.2369 8.10961 33.1241 8.38161 32.9237 8.58203C32.7233 8.78245 32.4515 8.89427 32.1681 8.89453Z" fill="#8D715E"/>
<path d="M59.9657 10.0635H45.2188V8.30469C45.2188 7.97025 45.0858 7.64957 44.8494 7.41309C44.6129 7.1766 44.2922 7.04395 43.9578 7.04395H39.9998C39.7945 5.11016 38.8809 3.32098 37.4351 2.02051C35.9892 0.720035 34.1133 0 32.1687 0C30.2241 0 28.3482 0.720035 26.9023 2.02051C25.4565 3.32098 24.5431 5.11016 24.3378 7.04395H20.3778C20.0434 7.04395 19.7226 7.1766 19.4861 7.41309C19.2496 7.64957 19.1167 7.97025 19.1167 8.30469V10.0635H4.03381C3.16608 10.0645 2.33416 10.4089 1.72058 11.0225C1.107 11.636 0.761801 12.4682 0.760742 13.3359V76.7266C0.761801 77.5943 1.107 78.4265 1.72058 79.04C2.33416 79.6536 3.16608 79.9989 4.03381 80H59.9657C60.8334 79.9989 61.6654 79.6536 62.2789 79.04C62.8925 78.4265 63.2377 77.5943 63.2388 76.7266V13.3359C63.2377 12.4682 62.8925 11.636 62.2789 11.0225C61.6654 10.4089 60.8334 10.0645 59.9657 10.0635ZM21.6377 9.56348H25.5697C25.7421 9.56342 25.9126 9.52754 26.0708 9.45898C26.229 9.39043 26.3715 9.28983 26.4894 9.16406C26.6073 9.03829 26.6981 8.8898 26.7563 8.72754C26.8146 8.56528 26.8388 8.39273 26.8278 8.2207C26.8196 8.10421 26.8152 7.98787 26.8147 7.87109C26.805 7.16204 26.9364 6.4577 27.201 5.7998C27.4657 5.14191 27.8583 4.5439 28.3563 4.03906C28.8543 3.53422 29.4476 3.13298 30.1018 2.85938C30.756 2.58577 31.4581 2.44531 32.1672 2.44531C32.8764 2.44531 33.5785 2.58577 34.2327 2.85938C34.8869 3.13298 35.4802 3.53422 35.9781 4.03906C36.4761 4.5439 36.8689 5.14191 37.1335 5.7998C37.3982 6.4577 37.5295 7.16204 37.5198 7.87109C37.5198 7.97109 37.5197 8.07863 37.5067 8.22363C37.4961 8.39542 37.5207 8.56758 37.5791 8.72949C37.6375 8.8914 37.7285 9.0396 37.8463 9.16504C37.9642 9.29048 38.1064 9.39061 38.2644 9.45898C38.4224 9.52736 38.5927 9.5634 38.7648 9.56348H42.6997V15.1631H21.6388L21.6377 9.56348ZM60.7178 76.7266C60.7178 76.926 60.6386 77.1178 60.4976 77.2588C60.3565 77.3998 60.1651 77.4785 59.9657 77.4785H4.03381C3.83445 77.4782 3.64329 77.3998 3.50232 77.2588C3.36135 77.1178 3.282 76.9259 3.28174 76.7266V13.3359C3.282 13.1366 3.36135 12.9457 3.50232 12.8047C3.64329 12.6637 3.83445 12.5842 4.03381 12.584H19.1167V15.1621H7.38574C7.0513 15.1621 6.73062 15.2948 6.49414 15.5312C6.25766 15.7677 6.12476 16.0884 6.12476 16.4229V73.3604C6.12476 73.6948 6.25766 74.0155 6.49414 74.252C6.73062 74.4884 7.0513 74.6211 7.38574 74.6211H16.5718C16.9062 74.6211 17.2269 74.4884 17.4634 74.252C17.6999 74.0155 17.8328 73.6948 17.8328 73.3604C17.8328 73.0259 17.6999 72.7052 17.4634 72.4688C17.2269 72.2323 16.9062 72.0986 16.5718 72.0986H8.64673V17.6836H55.3547V72.0996H21.6157C21.2813 72.0996 20.9606 72.2332 20.7241 72.4697C20.4876 72.7062 20.3547 73.0269 20.3547 73.3613C20.3547 73.6958 20.4876 74.0164 20.7241 74.2529C20.9606 74.4894 21.2813 74.6221 21.6157 74.6221H56.6157C56.9502 74.6221 57.271 74.4894 57.5074 74.2529C57.7439 74.0164 57.8767 73.6958 57.8767 73.3613V16.4229C57.8767 16.0884 57.7439 15.7677 57.5074 15.5312C57.271 15.2948 56.9502 15.1621 56.6157 15.1621H45.2157V12.584H59.9657C60.1651 12.584 60.3565 12.6637 60.4976 12.8047C60.6386 12.9457 60.7178 13.1365 60.7178 13.3359V76.7266Z" fill="#8D715E"/>
<path d="M18.6823 31.1998C18.9172 31.4257 19.2304 31.5514 19.5563 31.5514C19.8822 31.5514 20.1954 31.4257 20.4303 31.1998L23.1233 28.5992C23.3546 28.3651 23.4852 28.0504 23.4872 27.7213C23.4892 27.3922 23.3624 27.0754 23.1339 26.8385C22.9055 26.6015 22.5935 26.4627 22.2646 26.4527C21.9356 26.4427 21.6157 26.5621 21.3733 26.7848L19.5532 28.5387L18.8263 27.8385C18.7078 27.7195 18.5666 27.6258 18.4112 27.5621C18.2557 27.4984 18.0891 27.4658 17.9212 27.4674C17.7532 27.4689 17.5872 27.5043 17.433 27.5709C17.2788 27.6375 17.1394 27.7339 17.0231 27.8551C16.9068 27.9763 16.8159 28.1201 16.7556 28.2769C16.6954 28.4338 16.6672 28.6003 16.6725 28.7682C16.6778 28.9361 16.7166 29.1018 16.7866 29.2545C16.8567 29.4072 16.9566 29.5442 17.0803 29.6578L18.6823 31.1998Z" fill="#FCC865"/>
<path d="M20.1765 35.8566C21.5752 35.8566 22.9425 35.4413 24.1055 34.6642C25.2685 33.8872 26.1749 32.7826 26.7102 31.4904C27.2455 30.1982 27.3855 28.7763 27.1127 27.4045C26.8398 26.0326 26.1662 24.7724 25.1771 23.7834C24.1881 22.7943 22.928 22.1207 21.5562 21.8478C20.1843 21.575 18.7625 21.7149 17.4702 22.2502C16.178 22.7854 15.0735 23.6927 14.2964 24.8556C13.5193 26.0186 13.1045 27.3856 13.1045 28.7844C13.1066 30.6593 13.8524 32.4566 15.1782 33.7824C16.504 35.1082 18.3016 35.8545 20.1765 35.8566ZM20.1765 24.2345C21.0764 24.2345 21.9561 24.5012 22.7043 25.0011C23.4526 25.5011 24.0357 26.2117 24.3801 27.0431C24.7245 27.8745 24.8146 28.7894 24.639 29.672C24.4635 30.5547 24.0301 31.3648 23.3938 32.0011C22.7575 32.6375 21.9468 33.0707 21.0642 33.2463C20.1816 33.4218 19.2667 33.3319 18.4353 32.9875C17.6039 32.6431 16.8933 32.0599 16.3933 31.3117C15.8934 30.5635 15.6265 29.6843 15.6265 28.7844C15.6278 27.578 16.1077 26.4215 16.9607 25.5685C17.8137 24.7155 18.9702 24.2359 20.1765 24.2345ZM18.6825 47.6076C18.9174 47.8335 19.2306 47.9592 19.5565 47.9592C19.8824 47.9592 20.1956 47.8335 20.4305 47.6076L23.1235 45.007C23.3548 44.7729 23.4854 44.4582 23.4874 44.1291C23.4894 43.8 23.3626 43.4822 23.1342 43.2453C22.9057 43.0084 22.5937 42.8705 22.2648 42.8605C21.9358 42.8505 21.616 42.9699 21.3735 43.1926L19.5535 44.9465L18.8265 44.2463C18.708 44.1273 18.5668 44.0326 18.4114 43.9689C18.256 43.9052 18.0894 43.8736 17.9214 43.8752C17.7534 43.8767 17.5874 43.9121 17.4332 43.9787C17.279 44.0453 17.1396 44.1417 17.0233 44.2629C16.907 44.3841 16.8161 44.5269 16.7559 44.6838C16.6956 44.8406 16.6674 45.0081 16.6727 45.176C16.6781 45.3438 16.7168 45.5086 16.7869 45.6613C16.8569 45.814 16.9568 45.952 17.0806 46.0656L18.6825 47.6076Z" fill="#FCC865"/>
<path d="M20.1765 52.2619C21.5752 52.2619 22.9425 51.8476 24.1055 51.0705C25.2685 50.2934 26.1749 49.1889 26.7102 47.8967C27.2455 46.6044 27.3855 45.1826 27.1127 43.8107C26.8398 42.4389 26.1662 41.1787 25.1771 40.1896C24.1881 39.2006 22.928 38.527 21.5562 38.2541C20.1843 37.9812 18.7625 38.1212 17.4702 38.6564C16.178 39.1917 15.0735 40.0979 14.2964 41.2609C13.5193 42.4239 13.1045 43.7919 13.1045 45.1906C13.1066 47.0656 13.8524 48.8629 15.1782 50.1886C16.504 51.5144 18.3016 52.2598 20.1765 52.2619ZM20.1765 40.6398C21.0764 40.6398 21.9561 40.9074 22.7043 41.4074C23.4526 41.9074 24.0357 42.618 24.3801 43.4494C24.7245 44.2808 24.8146 45.1957 24.639 46.0783C24.4635 46.9609 24.0301 47.7711 23.3938 48.4074C22.7575 49.0437 21.9468 49.477 21.0642 49.6525C20.1816 49.8281 19.2667 49.7381 18.4353 49.3937C17.6039 49.0493 16.8933 48.4662 16.3933 47.7179C15.8934 46.9697 15.6265 46.0905 15.6265 45.1906C15.6278 43.9843 16.1077 42.8278 16.9607 41.9748C17.8137 41.1218 18.9702 40.6411 20.1765 40.6398ZM21.3745 59.5998L19.5546 61.3537L18.8275 60.6545C18.5847 60.4317 18.2643 60.312 17.9349 60.3224C17.6056 60.3329 17.2934 60.4724 17.0652 60.7101C16.837 60.9479 16.7109 61.2654 16.714 61.5949C16.717 61.9244 16.849 62.2394 17.0815 62.4728L18.6815 64.0109C18.9164 64.2368 19.2297 64.3635 19.5555 64.3635C19.8814 64.3635 20.1947 64.2368 20.4296 64.0109L23.1226 61.4113C23.2464 61.2976 23.3463 61.1599 23.4163 61.007C23.4862 60.8541 23.5249 60.6888 23.53 60.5207C23.5351 60.3526 23.5065 60.1854 23.4459 60.0285C23.3854 59.8716 23.2941 59.7287 23.1774 59.6076C23.0606 59.4865 22.9208 59.3897 22.7662 59.3234C22.6117 59.2572 22.4454 59.2229 22.2772 59.2219C22.109 59.2208 21.9424 59.2532 21.787 59.3176C21.6316 59.3819 21.4908 59.4762 21.3726 59.5959L21.3745 59.5998Z" fill="#FCC865"/>
<path d="M27.2486 61.5998C27.2486 60.2011 26.8337 58.8341 26.0567 57.6711C25.2796 56.5081 24.1751 55.6018 22.8828 55.0666C21.5906 54.5313 20.1687 54.3914 18.7969 54.6642C17.4251 54.9371 16.165 55.6107 15.1759 56.5998C14.1869 57.5888 13.5132 58.849 13.2404 60.2209C12.9675 61.5927 13.1076 63.0146 13.6428 64.3068C14.1781 65.5991 15.0846 66.7036 16.2476 67.4806C17.4106 68.2577 18.7778 68.672 20.1765 68.672C22.0515 68.6699 23.849 67.9246 25.1748 66.5988C26.5006 65.273 27.2464 63.4747 27.2486 61.5998ZM20.1765 66.1506C19.2766 66.1506 18.3969 65.8829 17.6487 65.383C16.9005 64.883 16.3173 64.1724 15.9729 63.341C15.6285 62.5096 15.5384 61.5947 15.714 60.7121C15.8896 59.8295 16.3229 59.0193 16.9592 58.383C17.5956 57.7467 18.4062 57.3134 19.2888 57.1379C20.1715 56.9623 21.0863 57.0523 21.9177 57.3967C22.7491 57.741 23.4598 58.3242 23.9597 59.0724C24.4597 59.8207 24.7266 60.6999 24.7266 61.5998C24.7245 62.8056 24.2443 63.9613 23.3914 64.8136C22.5385 65.666 21.3823 66.1463 20.1765 66.1476V66.1506Z" fill="#FCC865"/>
<path d="M31.2239 26.7451H40.7999C41.1344 26.7451 41.455 26.6125 41.6915 26.376C41.928 26.1395 42.0609 25.8188 42.0609 25.4844C42.0609 25.1499 41.928 24.8293 41.6915 24.5928C41.455 24.3563 41.1344 24.2227 40.7999 24.2227H31.2239C30.8894 24.2227 30.5688 24.3563 30.3323 24.5928C30.0958 24.8293 29.9629 25.1499 29.9629 25.4844C29.9629 25.8188 30.0958 26.1395 30.3323 26.376C30.5688 26.6125 30.8894 26.7451 31.2239 26.7451ZM31.2239 31.9287H49.2999C49.6344 31.9287 49.955 31.7961 50.1915 31.5596C50.428 31.3231 50.5609 31.0024 50.5609 30.668C50.5609 30.3335 50.428 30.0129 50.1915 29.7764C49.955 29.5399 49.6344 29.4072 49.2999 29.4072H31.2239C30.8894 29.4072 30.5688 29.5399 30.3323 29.7764C30.0958 30.0129 29.9629 30.3335 29.9629 30.668C29.9629 31.0024 30.0958 31.3231 30.3323 31.5596C30.5688 31.7961 30.8894 31.9287 31.2239 31.9287ZM31.2239 43.8594H40.7999C41.1344 43.8594 41.455 43.7257 41.6915 43.4893C41.928 43.2528 42.0609 42.9321 42.0609 42.5977C42.0609 42.2632 41.928 41.9425 41.6915 41.7061C41.455 41.4696 41.1344 41.3369 40.7999 41.3369H31.2239C30.8894 41.3369 30.5688 41.4696 30.3323 41.7061C30.0958 41.9425 29.9629 42.2632 29.9629 42.5977C29.9629 42.9321 30.0958 43.2528 30.3323 43.4893C30.5688 43.7257 30.8894 43.8594 31.2239 43.8594ZM31.2239 49.043H49.2999C49.6344 49.043 49.955 48.9103 50.1915 48.6738C50.428 48.4373 50.5609 48.1167 50.5609 47.7822C50.5609 47.4478 50.428 47.1271 50.1915 46.8906C49.955 46.6541 49.6344 46.5215 49.2999 46.5215H31.2239C30.8894 46.5215 30.5688 46.6541 30.3323 46.8906C30.0958 47.1271 29.9629 47.4478 29.9629 47.7822C29.9629 48.1167 30.0958 48.4373 30.3323 48.6738C30.5688 48.9103 30.8894 49.043 31.2239 49.043ZM31.2239 60.2646H40.7999C41.1344 60.2646 41.455 60.132 41.6915 59.8955C41.928 59.659 42.0609 59.3383 42.0609 59.0039C42.0609 58.6695 41.928 58.3488 41.6915 58.1123C41.455 57.8758 41.1344 57.7432 40.7999 57.7432H31.2239C30.8894 57.7432 30.5688 57.8758 30.3323 58.1123C30.0958 58.3488 29.9629 58.6695 29.9629 59.0039C29.9629 59.3383 30.0958 59.659 30.3323 59.8955C30.5688 60.132 30.8894 60.2646 31.2239 60.2646ZM31.2239 65.4492H49.2999C49.6344 65.4492 49.955 65.3166 50.1915 65.0801C50.428 64.8436 50.5609 64.5229 50.5609 64.1885C50.5609 63.854 50.428 63.5324 50.1915 63.2959C49.955 63.0594 49.6344 62.9268 49.2999 62.9268H31.2239C30.8894 62.9268 30.5688 63.0594 30.3323 63.2959C30.0958 63.5324 29.9629 63.854 29.9629 64.1885C29.9629 64.5229 30.0958 64.8436 30.3323 65.0801C30.5688 65.3166 30.8894 65.4492 31.2239 65.4492Z" fill="#8D715E"/>
</svg>
