<svg width="50" height="50" viewBox="0 0 50 50" fill="none" xmlns="http://www.w3.org/2000/svg">
<path d="M38.2494 10.2913C38.4749 10.2909 38.6932 10.2122 38.8673 10.0689C39.0414 9.92559 39.1605 9.72636 39.2042 9.50518C39.248 9.284 39.2137 9.05452 39.1073 8.85577C39.0008 8.65701 38.8287 8.50141 38.6204 8.41523C38.4121 8.32905 38.1803 8.31773 37.9645 8.38322C37.7488 8.4487 37.5624 8.58694 37.4371 8.77439C37.3118 8.96183 37.2554 9.18693 37.2774 9.41132C37.2994 9.63571 37.3985 9.8453 37.5578 10.0049C37.7416 10.1877 37.9902 10.2909 38.2494 10.2913ZM49.4828 18.8384L41.475 14.5676C41.3262 14.4882 41.1594 14.4488 40.9908 14.4531C40.8222 14.4574 40.6576 14.5052 40.513 14.592C40.3684 14.6787 40.2488 14.8017 40.1657 14.9484C40.0826 15.0952 40.0389 15.261 40.0389 15.4297V18.0723L33.4667 14.5676C33.3179 14.4882 33.1511 14.4488 32.9825 14.4531C32.8139 14.4574 32.6493 14.5052 32.5047 14.592C32.3602 14.6787 32.2405 14.8017 32.1574 14.9484C32.0743 15.0952 32.0306 15.261 32.0306 15.4297V18.0723L25.4583 14.5676C25.3095 14.4882 25.1427 14.4488 24.9742 14.4531C24.8056 14.4574 24.641 14.5052 24.4964 14.592C24.3518 14.6787 24.2321 14.8017 24.149 14.9484C24.0659 15.0952 24.0222 15.261 24.0222 15.4297V26.1718H8.98444V15.4297C8.98444 15.1706 8.88155 14.9222 8.69839 14.739C8.51523 14.5559 8.26681 14.4526 8.00778 14.4526H6.60723V13.0702C6.60723 12.9578 6.65187 12.8496 6.73136 12.7702C6.81086 12.6907 6.91869 12.6459 7.03111 12.6459C7.29014 12.6459 7.53857 12.5432 7.72173 12.36C7.90489 12.1768 8.00778 11.9284 8.00778 11.6694C8.00778 11.4103 7.90489 11.1619 7.72173 10.9787C7.53857 10.7955 7.29014 10.6928 7.03111 10.6928C6.40101 10.6935 5.79691 10.9439 5.35136 11.3894C4.90581 11.835 4.65517 12.4395 4.65444 13.0696V14.452H2.93223V9.85946C2.93326 8.9652 3.28892 8.10794 3.9212 7.47556C4.55348 6.84317 5.41075 6.48715 6.305 6.48597H7.88222C7.82189 6.75459 7.79117 7.02935 7.79056 7.30466C7.79174 8.2937 8.18515 9.24148 8.88451 9.94084C9.58388 10.6402 10.5321 11.034 11.5211 11.0351H15.2083C15.4674 11.0351 15.7158 10.9318 15.8989 10.7487C16.0821 10.5655 16.185 10.3176 16.185 10.0586C16.185 9.79954 16.0821 9.55108 15.8989 9.36792C15.7158 9.18476 15.4674 9.08146 15.2083 9.08146H11.5189C11.2854 9.08146 11.0542 9.03571 10.8386 8.94637C10.6229 8.85703 10.4269 8.72625 10.2618 8.56117C10.0967 8.39609 9.96578 8.20015 9.87644 7.98446C9.7871 7.76877 9.74111 7.53758 9.74111 7.30412C9.74233 7.05641 9.79258 6.81127 9.88898 6.58309C9.98539 6.35491 10.126 6.14791 10.3028 5.97436C10.4672 5.81046 10.6627 5.68125 10.8779 5.59405C11.093 5.50684 11.3234 5.46337 11.5555 5.46655C11.8109 5.47087 12.0622 5.53082 12.2922 5.64179C12.4139 5.70036 12.5464 5.73306 12.6814 5.73782C12.8164 5.74257 12.9508 5.71932 13.0763 5.66946C13.2019 5.6196 13.3157 5.54418 13.4106 5.44811C13.5055 5.35203 13.5795 5.2373 13.6278 5.11119C13.9843 4.18289 14.6134 3.38413 15.4324 2.82007C16.2513 2.256 17.2218 1.95309 18.2162 1.95093C19.2106 1.94876 20.1824 2.24764 21.0038 2.80813C21.8252 3.36863 22.4578 4.16437 22.8183 5.09112C22.0191 5.52922 21.3611 6.18584 20.9211 6.98402C20.8562 7.09644 20.8144 7.22038 20.7981 7.34915C20.7817 7.47791 20.7913 7.60876 20.8261 7.7338C20.8609 7.85885 20.9202 7.97593 21.0006 8.07777C21.0811 8.17962 21.1811 8.26403 21.2947 8.32679C21.4083 8.38956 21.5333 8.42899 21.6623 8.4429C21.7914 8.45681 21.9219 8.44529 22.0463 8.40818C22.1707 8.37106 22.2864 8.30933 22.3867 8.22697C22.487 8.14461 22.5699 8.04334 22.6305 7.92857C22.9376 7.37123 23.4213 6.93141 24.0055 6.67912C24.5897 6.42682 25.2413 6.37623 25.8575 6.5348C26.4738 6.69337 27.0199 7.05238 27.4097 7.55531C27.7996 8.05824 28.0112 8.67623 28.0111 9.31258C28.0111 9.57161 28.114 9.82007 28.2972 10.0032C28.4803 10.1864 28.7287 10.2897 28.9878 10.2897H34.315C34.574 10.2897 34.8225 10.1864 35.0056 10.0032C35.1888 9.82007 35.2917 9.57161 35.2917 9.31258C35.2917 9.05355 35.1888 8.80509 35.0056 8.62193C34.8225 8.43877 34.574 8.33602 34.315 8.33602H29.865C29.6388 7.25049 29.046 6.27566 28.1861 5.5756C27.3262 4.87554 26.2516 4.49293 25.1428 4.49162C24.9905 4.49162 24.8391 4.4987 24.6883 4.51278C24.2339 3.27175 23.4316 2.18811 22.3775 1.39103C21.3233 0.593951 20.0618 0.116912 18.7439 0.0178753C17.426 -0.0811616 16.1075 0.201643 14.946 0.83222C13.7845 1.4628 12.8293 2.41447 12.1945 3.57365C11.9957 3.53748 11.7943 3.51774 11.5922 3.51397C10.6229 3.49501 9.68556 3.86144 8.9861 4.53285H6.30276C4.89068 4.53476 3.537 5.09626 2.53855 6.09481C1.54011 7.09335 0.978428 8.44737 0.976664 9.85946V14.4531C0.717732 14.4531 0.469399 14.556 0.286255 14.739C0.10311 14.9221 0.000147288 15.1707 0 15.4297V49.0234C0 49.2824 0.102891 49.5309 0.286051 49.7141C0.469212 49.8972 0.717636 50 0.976664 50H49.0233C49.2823 50 49.5308 49.8972 49.714 49.7141C49.8971 49.5309 50 49.2824 50 49.0234V19.7C50 19.5229 49.9519 19.3493 49.8608 19.1976C49.7697 19.0458 49.639 18.9216 49.4828 18.8384ZM1.95333 20.3119H7.03166V44.1406H1.95333V20.3119ZM7.03166 18.3588H1.95333V16.4062H7.03166V18.3588ZM1.95333 46.0937H7.03166V48.0474H1.95333V46.0937ZM25 48.0468H8.98444V32.0312H17.7733C18.0324 32.0312 18.2808 31.9279 18.4639 31.7448C18.6471 31.5616 18.75 31.3137 18.75 31.0547C18.75 30.7956 18.6471 30.5472 18.4639 30.364C18.2808 30.1809 18.0324 30.0776 17.7733 30.0776H8.98444V28.125H38.2811V48.0468H25ZM48.0467 48.0468H40.2344V27.1484C40.2344 26.8894 40.1316 26.6409 39.9484 26.4578C39.7652 26.2746 39.5168 26.1718 39.2577 26.1718H25.9767V17.0556L32.5489 20.5599C32.6977 20.6392 32.8645 20.6786 33.033 20.6743C33.2016 20.6701 33.3662 20.6222 33.5108 20.5355C33.6554 20.4487 33.7751 20.3263 33.8582 20.1796C33.9413 20.0328 33.985 19.8669 33.985 19.6983V17.0556L40.5556 20.561C40.7043 20.6404 40.8712 20.6802 41.0398 20.676C41.2085 20.6718 41.3731 20.6239 41.5177 20.5371C41.6624 20.4503 41.7821 20.3275 41.8652 20.1806C41.9482 20.0338 41.9918 19.8681 41.9916 19.6994V17.0556L48.0472 20.2837L48.0467 48.0468Z" fill="#8D715E"/>
<path d="M16.6019 34.7656H11.9142C11.6551 34.7656 11.4067 34.8684 11.2236 35.0515C11.0404 35.2347 10.9375 35.4832 10.9375 35.7422V40.4302C10.9375 40.6893 11.0404 40.9377 11.2236 41.1209C11.4067 41.304 11.6551 41.4068 11.9142 41.4068H16.6014C16.8604 41.4068 17.1088 41.304 17.292 41.1209C17.4752 40.9377 17.5781 40.6893 17.5781 40.4302V35.7422C17.5781 35.4833 17.4752 35.2347 17.2922 35.0515C17.1091 34.8684 16.8609 34.7658 16.6019 34.7656ZM15.6253 39.4531H12.8892V36.7188H15.6236L15.6253 39.4531ZM25.977 34.7656H21.2891C21.0301 34.7656 20.7817 34.8684 20.5986 35.0515C20.4154 35.2347 20.3125 35.4832 20.3125 35.7422V40.4302C20.3125 40.6893 20.4154 40.9377 20.5986 41.1209C20.7817 41.304 21.0301 41.4068 21.2891 41.4068H25.977C26.236 41.4068 26.4844 41.304 26.6675 41.1209C26.8507 40.9377 26.9536 40.6893 26.9536 40.4302V35.7422C26.9536 35.4832 26.8507 35.2347 26.6675 35.0515C26.4844 34.8684 26.236 34.7656 25.977 34.7656ZM25.0003 39.4531H22.2658V36.7188H25.0003V39.4531ZM35.352 34.7656H30.6669C30.4079 34.7656 30.1595 34.8684 29.9763 35.0515C29.7932 35.2347 29.6903 35.4832 29.6903 35.7422V40.4302C29.6904 40.6892 29.7934 40.9373 29.9765 41.1203C30.1597 41.3034 30.408 41.4063 30.6669 41.4063H35.3547C35.6137 41.4063 35.8622 41.303 36.0453 41.1198C36.2285 40.9366 36.3314 40.6887 36.3314 40.4297V35.7422C36.3314 35.6137 36.306 35.4865 36.2568 35.3678C36.2075 35.2492 36.1353 35.1412 36.0443 35.0505C35.9533 34.9597 35.8453 34.8878 35.7265 34.8389C35.6077 34.79 35.4805 34.7653 35.352 34.7656ZM34.3753 39.4531H31.6408V36.7188H34.3753V39.4531Z" fill="#FA9936"/>
<path d="M21.4033 32.0311C21.6293 32.0312 21.8483 31.9526 22.023 31.8093C22.1977 31.6659 22.3172 31.4666 22.3613 31.245C22.4054 31.0234 22.3713 30.7933 22.2648 30.594C22.1583 30.3947 21.986 30.2383 21.7773 30.1518C21.5685 30.0653 21.3362 30.0542 21.12 30.1198C20.9038 30.1854 20.717 30.3236 20.5914 30.5115C20.4659 30.6994 20.4093 30.9252 20.4315 31.1501C20.4536 31.3749 20.553 31.5849 20.7128 31.7447C20.8963 31.9272 21.1445 32.0304 21.4033 32.0311Z" fill="#8D715E"/>
</svg>
